<svg enable-background="new 0 0 100 91" height="301.68796" viewBox="0 0 100 91" width="331.468316" xmlns="http://www.w3.org/2000/svg"><path d="m73.2 68.8c1.4 1 2.7 1.9 4.1 2.9.2.1.3 0 .4 0 1.5-1.1 3-2.1 4.5-3.2 3.3-2.3 6.6-4.6 9.8-7 .4-.3.9-.6 1.3-.9.3.1.4.4.7.5-1.1 2.8-2.2 5.6-3.3 8.5 3.1 1.3 6.1 2.6 9.3 4-.7.4-1.3.7-1.9 1.1-4 2.2-8.1 4.3-12.3 6.1-2.2 1-4.4 1.9-6.7 2.7-.5.2-.9.4-1.4.5-.2.1-.3.2-.3.4v2.9.4c-1.3.2-2.5.5-3.7.7-2.7.5-5.4 1-8.1 1.4-3 .4-6.1.8-9.1 1-3.1.2-6.2.4-9.3.3-2.6-.1-5.2-.2-7.8-.5-3.2-.3-6.3-.8-9.4-1.4-2.6-.5-5.2-1-7.8-1.7-.1 0-.2-.1-.3-.1 0-.5 0-1 0-1.5 0-.8 0-1.6 0-2.4 0-.2-.1-.3-.2-.4-1.8-.7-3.5-1.4-5.3-2.1-3.4-1.5-6.6-3.1-9.9-4.8-2.1-1.1-4.1-2.2-6.1-3.4-.1 0-.1-.1-.2-.1 2.9-1.3 5.7-2.7 8.6-4-.3-.8-.5-1.5-.8-2.3-.6-2-1.3-3.9-2-5.9-.1-.2 0-.3.1-.4s.2-.1.3-.2.3-.1.4 0c2 1.5 4.1 3 6.1 4.4 1.4 1 2.9 2.1 4.3 3.1 1.7 1.2 3.4 2.5 5.1 3.7 0 0 .1.1.2.1 1.2-1 2.5-2 3.7-3.1-.4-.3-.7-.6-1.1-1-3.4-3-6.2-6.4-8.5-10.4-1.5-2.8-2.7-5.7-3.5-8.7-1-3.7-1.4-7.4-1.3-11.2.1-3 .5-6 1.4-8.9 1-3.6 2.5-7 4.5-10.2 3.8-6 8.8-10.6 15.1-13.8 2.4-1.2 4.9-2.2 7.6-2.9 2.2-.6 4.5-1 6.8-1.1 2.2-.2 4.5-.2 6.7.1 2.5.2 5 .7 7.4 1.4 1.1.3 2.3.7 3.4 1.2 1.2.5 2.4 1 3.5 1.6 1.2.6 2.3 1.3 3.4 2 2.8 1.9 5.2 4 7.4 6.5 1.2 1.4 2.4 2.9 3.4 4.5.8 1.3 1.6 2.6 2.2 3.9 1.4 2.8 2.4 5.7 3 8.7s.9 5.9.9 9c-.1 3.4-.6 6.8-1.5 10.1-.7 2.5-1.7 4.8-2.9 7.1-.9 1.7-1.9 3.3-3.1 4.9-.8 1.1-1.6 2.1-2.6 3.1-1 1.1-2 2.1-3.1 3-.8.8-1.4 1.3-2.1 1.8zm-.4.3c-.1 0-.1.1-.2.1-3.5 2.5-7.3 4.5-11.4 5.7-2.8.9-5.7 1.4-8.6 1.6-3.4.2-6.8 0-10.2-.6-2.6-.5-5.1-1.3-7.5-2.3-2.7-1.2-5.3-2.6-7.7-4.4-.4-.3-.8-.6-1.3-.9-.1.2 0 .2.1.3.9 2 1.9 4 2.8 6.1.1.2.2.2.4.3 1.1.2 2.1.5 3.2.7 2 .5 4.1.8 6.1 1.1 1.3.2 2.6.4 3.9.5 1.5.1 2.9.2 4.4.3 3.4.1 6.9 0 10.3-.4 2-.2 4-.5 6-.8 2.5-.4 4.9-1 7.3-1.6.2 0 .3-.1.3-.3.6-1.5 1.1-2.9 1.7-4.4.2-.2.4-.6.4-1 .1 0 .1 0 0 0zm-65.7-7.6c0-.1 0-.1 0 0 0-.1 0 0 0 0 .5 1.4.9 2.7 1.4 4.1l1.2 3.6c-2.6 1.2-5.2 2.4-7.8 3.6 2.6 1.9 17.6 9.1 19.8 9.5 0-.3 0-.6 0-1 0-.6 0-.6-.5-.7-1.1-.3-2.1-.8-3.1-1.2-.5-.2-1-.4-1.4-.6-.7-.3-1.3-.7-2-1 .1-.3.3-.5.4-.8 2.2 1.1 4.4 2.1 6.7 2.9.1-.7.1-.7-.5-.9-1.6-.6-3.2-1.2-4.8-1.9-.4-.2-.8-.4-1.3-.6.1-.3.2-.6.4-.8 2 .9 4.1 1.8 6.2 2.5 0-.7.1-.5-.4-.7-1.4-.5-2.7-1-3.9-1.5-.6-.2-1.2-.5-1.8-.8.1-.3.2-.5.4-.8 1.8.8 3.7 1.6 5.6 2.2.1-.5.1-.5-.3-.6-.3-.1-.6-.2-1-.4-.5-.2-1-.4-1.5-.6-.9-.3-1.7-.7-2.6-1 .2-.3.2-.6.4-.8 1.6.7 3.2 1.4 4.9 1.9.1-.5.1-.5-.4-.7-.7-.3-1.5-.6-2.2-.8-.5-.2-1.1-.4-1.6-.7.1-.3.2-.5.4-.8 1.3.5 2.6 1.1 3.9 1.5 0-.3 0-.5 0-.7 2.1.6 4.1 1.2 6.2 1.7-.8-1.7-1.5-3.3-2.3-4.9-1.1.9-2.2 1.8-3.3 2.7-.8-.6-1.5-1.1-2.3-1.7-2-1.4-4-2.9-6-4.3-2.2-1.6-4.4-3.2-6.7-4.8 0-.1-.1-.2-.2-.1zm80.3-23.2c0-20.6-16.8-37.6-37.7-37.5-20.5.2-37.3 16.9-37.2 37.8 0 4 .7 7.8 1.9 11.6 1.3 3.7 3 7.2 5.4 10.4s5.2 5.9 8.4 8.3c3.2 2.3 6.7 4.1 10.4 5.2 3.8 1.2 7.6 1.7 11.6 1.7 20.5-.1 37.2-16.8 37.2-37.5zm-64.8 35.8v12.6c.9.2 1.7.4 2.5.6 3 .7 5.9 1.2 8.9 1.7 3.2.5 6.4.8 9.6 1 2.3.1 4.6.2 6.9.1h1.9c.7 0 1.4-.1 2.1-.1 2-.1 3.9-.3 5.8-.5 2.5-.3 5-.6 7.5-1l8.4-1.5c.2 0 .3-.1.3-.4 0-3.9 0-7.9 0-11.8 0-.1 0-.3-.1-.5-.1 0-.2.1-.3.1-2.7.8-5.5 1.5-8.2 2.1-1.6.4-3.1.7-4.7 1s-3.2.5-4.8.7c-1.8.2-3.6.3-5.4.4-2.4.1-4.8.1-7.2 0s-4.9-.4-7.3-.8c-1.8-.3-3.5-.6-5.3-.9-3.1-.7-6.2-1.4-9.3-2.3-.4-.2-.8-.3-1.3-.5zm60.5.5c-1.9.8-3.7 1.5-5.6 2.1v.5c2-.7 4-1.4 6-2.2.1.3.2.5.3.8-.1 0-.1.1-.2.1-1.9.8-3.8 1.5-5.8 2.1-.3.1-.5.2-.4.7 2.2-.7 4.4-1.5 6.6-2.4.1.3.2.5.3.8-.2.1-.3.1-.5.2-2.1.8-4.1 1.6-6.3 2.3-.1 0-.3 0-.3.2v.6c2.5-.8 4.9-1.6 7.2-2.6.1.3.2.5.3.8-.9.4-1.9.7-2.8 1.1-1.5.6-3 1.1-4.5 1.6-.1 0-.3 0-.3.2v1.7c2.7-.5 18.9-7.9 20.6-9.4-2.8-1.2-5.6-2.4-8.4-3.6 1-2.6 2-5.2 3-7.8-.2.1-15 10.6-15.2 10.7-1.3-.9-2.6-1.9-4-2.8-.6 1.5-1.1 3-1.7 4.5 1.9-.5 3.8-1 5.7-1.6v1.3c1.6-.5 3.1-1.1 4.6-1.7.1.3.2.5.3.8-.1 0-.1.1-.2.1-1.4.6-2.9 1.1-4.4 1.6-.5.2-.5.2-.3.7 1.8-.6 3.5-1.3 5.3-2 .5.1.6.3.7.6z" fill="#2e2b75"/><path d="m87.4 38.3c0 20.7-16.7 37.3-37.1 37.5-4 0-7.9-.5-11.6-1.7s-7.2-2.9-10.4-5.2-6-5.1-8.4-8.3-4.1-6.6-5.4-10.4-1.9-7.6-1.9-11.6c-.2-20.9 16.6-37.6 37.1-37.7 20.9-.2 37.7 16.8 37.7 37.4zm-63 0c-.1 14.2 11.5 25.7 25.7 25.7 14.1 0 25.5-11.4 25.6-25.5 0-7.2-2.5-13.4-7.6-18.5-6.1-6-13.5-8.3-21.9-7.1-11.3 1.6-21.8 11.6-21.8 25.4zm20.6 30.2c-.5-.1-.9-.1-1.3-.2-.6-.1-.7-.1-.8-.7 0-.1 0-.2 0-.3-.2-1.1-.8-1.7-1.9-1.9.5.7.9 1.4.9 2.3-.4 0-.8-.2-1.3-.3-.7-.1-.7-.1-.8-.8 0-.1 0-.2 0-.4-.1-1-.7-1.8-1.6-2 .5 1.6.6 1.9.4 2.5-.6-.1-1.2-.2-1.8-.4 0-.6-.1-1.1-.1-1.6-.1-1-.8-1.8-1.8-2.1.4.9.8 1.9.6 3-1.3-1.2-2.5-2.4-4.5-2.2.7 1.8 2.3 2.3 3.9 2.9-.6.2-1.1.3-1.7.3-.5 0-1.1-.1-1.6-.2.6.7 1.2 1.2 2.1 1.2.8 0 1.5-.2 2.1-.5.1-.1.2-.1.3-.1.6.2 1.2.3 1.8.5-.2.2-.4.4-.6.5-.5.3-1 .3-1.5.2-.4 0-.7 0-1.1 0 .7.7 1.5 1.1 2.4 1 .8-.1 1.4-.4 2-.9.1-.1.2-.2.3-.2.6.1 1.3.1 2 .2-.9 1-2.1 1.1-3.4 1.2.6.5 1.3.8 2 .8.9-.1 1.6-.5 2.2-1.1.1-.1.1-.2.3-.2.6 0 1.2.1 1.9.1-.7 1.1-1.8 1.2-3 1.4.7.3 1.3.5 2 .4.8-.1 1.4-.6 2-1.1.2-.2.3-.2.5-.2 1 .2 2 .4 3 .6.4.1.8.2 1.2.1 1.2-.3 2.5-.6 3.7-.9.2 0 .3 0 .4.1.3.3.6.5 1 .7 1.1.6 2.1.4 3.1-.1-1.1-.1-2.3-.1-3-1.2.5.1.6.1.7.1.4 0 .8-.1 1.2-.1.2 0 .4 0 .6.2.6.6 1.3.9 2.2 1 .8 0 1.4-.3 2-.9-1.2 0-2.4 0-3.4-1 .6-.1 1.1-.2 1.7-.3.3-.1.5 0 .8.2.1.1.3.2.4.3 1.4.8 3 .5 3.9-.7-1.1.1-2.3.4-3.3-.6.6-.2 1.2-.4 1.7-.5.1 0 .2 0 .3.1.5.2 1 .3 1.5.4 1 .2 2.3-.4 2.8-1.3-1.1.3-2.1.4-3.3.1 1.6-.7 3.2-1.3 3.8-3.1-.5 0-.9.1-1.3.2-1.3.4-2.1 1.4-3.1 2.3-.4-1.1 0-2.1.4-3.1-.3.2-.5.4-.7.5-.7.4-1 1.1-1 1.9v1.2c0 .1 0 .3-.2.3-.5.1-1.1.3-1.6.4-.2-.9 0-1.7.4-2.6-.7.4-1.3.9-1.5 1.7-.1.4-.1.8-.1 1.2 0 .1 0 .3-.2.3-.6.2-1.2.3-1.8.5 0-.5.1-.9.2-1.3s.3-.7.5-1.2c-.3.2-.6.3-.9.4-.5.3-.8.7-.9 1.3 0 .3-.1.7-.1 1 0 .1 0 .2-.2.2-.6.1-1.2.2-1.8.3.2-.9.7-1.6 1.1-2.3-1.3.4-2.1 1.2-2.3 2.5 0 .1 0 .1-.1.2 0 .2-.1.2-.3.3-1.1.3-2.2.6-3.4.9-.1 0-.2 0-.3 0-1-.2-2.1-.4-3.1-.6-.4-.1-.7-.2-.8-.7-.3-1.3-1.2-1.9-2.4-2.3.8.7 1.4 1.3 1.6 2.2zm-4.7-57.1c-.1-1-.2-2.1-.4-3.1h.1c.4.9.7 1.9 1.1 2.8.4-.1.7-.2 1-.4-.5-1.4-1.1-2.7-1.6-4.1-.5.2-1.1.4-1.7.6.1.9.2 1.8.3 2.6 0 0 0 0-.1 0-.5-.7-1.1-1.4-1.6-2.2-.6.2-1.1.4-1.7.6.5 1.4 1.1 2.7 1.6 4.1.4-.1.7-.3 1.1-.4-.4-1-.8-1.9-1.1-2.8h.1c.4.6.9 1.2 1.3 1.8.2.3.3.6.6.7s.6-.1 1-.2zm38.3 20.8c1.1-.2 2.2-.4 3.2-.6-1 .5-2 .9-3.1 1.4 0 .3.1.7.2 1 1.1.1 2.2.1 3.4.2-1.1.2-2.1.4-3.2.6.1.4.1.7.2 1.1 1.5-.3 3-.6 4.4-.8-.1-.5-.2-1-.3-1.4 0-.3-.1-.3-.4-.3-.8 0-1.6-.1-2.4-.1 0 0 0 0 0-.1.8-.4 1.6-.8 2.5-1.1-.1-.6-.2-1.2-.4-1.7-1.5.3-2.9.6-4.4.8.2.3.3.6.3 1zm.7 7.6c1.1.3 2.1.6 3.3.9-1.2 0-2.2 0-3.3 0v1.1h4.5c0-.6 0-1.1 0-1.7-.9-.2-1.7-.5-2.6-.7 0 0 0 0 0-.1.9-.2 1.8-.4 2.7-.6 0-.6 0-1.2 0-1.8-1.5 0-3 0-4.5 0v1.1h3.1v.1c-1.1.2-2.1.5-3.2.7zm-30-30.1c0-.8 0-1.5 0-2.3.1 0 .1.1.2.1.5.7.9 1.4 1.4 2.1.1.1.1.2.3.2h1.2c0-1.5 0-2.9 0-4.4-.4 0-.8 0-1.3 0v2.3c-.6-.7-1.1-1.4-1.6-2.1-.1-.1-.1-.2-.2-.2-.4 0-.8 0-1.2 0v4.4c.4-.1.8-.1 1.2-.1zm19.5 4c-.1-.1-.1-.1-.1-.2 0-.8 0-1.6 0-2.4 0-.1 0-.2-.1-.3-.3-.2-.6-.4-.9-.6-.9 1.2-1.7 2.4-2.6 3.6.4.2.7.5 1.1.7.5-.6.9-1.3 1.4-1.9v2.6c0 .1 0 .2.1.3.3.2.6.4 1 .7.9-1.2 1.7-2.4 2.6-3.6-.4-.2-.7-.5-1.1-.7-.5.6-.9 1.2-1.4 1.8zm-38.4 45.7c-.5-.5-.9-1-1.4-1.5-.1-.1-.2-.2-.3-.3-.8-.6-1.6-.6-2.4-.1-.3.2-.6.5-.8.8-.6.8-.7 1.6 0 2.4.4.5.9 1 1.4 1.5.2.2.3.1.4 0 .7-.6 1.3-1.2 2-1.7.3-.4.7-.8 1.1-1.1zm-1.6-45.3c-.6-.3-1.2-.4-1.8 0-.3.2-.6.5-.9.7-.7.8-.9 1.6-.4 2.4.4.7.9 1.1 1.6 1.3.4.1.8.1 1.1 0 1.1-.4 1.8-1.3 2.1-2.5 0-.1 0-.2-.1-.3-.4-.4-.9-.8-1.3-1.2-.4.4-1 .9-1.5 1.3.2.2.4.4.6.7.2-.2.5-.4.7-.6.3.2.3.4.2.7-.3.6-.8.9-1.3.7-.6-.2-1-.7-1.2-1.3-.2-.5.4-1.2.9-1.1.4.1.5-.1.7-.3.2 0 .4-.2.6-.5zm-10.1 16.6c-1.3 0-2.2 1-2.2 2.4 0 1.3 1 2.2 2.5 2.2 1.3 0 2.2-1 2.2-2.5 0-1.3-1-2-2.5-2.1zm56.1-13.1c.2-.4.4-.7.2-1.1-.3-1-1-1.6-1.9-1.9-1-.3-2.1.2-2.7 1.3-.4.7-.4 1.4 0 2 .6.8 1.3 1.4 2.4 1.6.1 0 .2 0 .3-.1.4-.4.8-.8 1.3-1.2-.5-.5-1-1-1.5-1.5-.2.2-.4.4-.6.6.2.3.5.4.6.7-.2.3-.4.3-.6.2s-.3-.2-.5-.3c-.4-.4-.5-.8-.2-1.3.2-.3.4-.5.7-.7.4-.2.8-.3 1.1 0 .4.3.5.6.4 1.1.3.2.6.4.9.6 0-.1.1-.1.1 0zm-11.7-8.5c.1-.6-.2-1.1-.7-1.4-.3-.2-.6-.3-.9-.4-1.4-.5-2.6.1-3 1.5-.3 1 0 1.9.8 2.4.7.4 1.6.6 2.4.5.5-.1.8-.2.9-.8 0-.2.1-.3.2-.5 0-.2.2-.4.2-.6-.7-.2-1.3-.4-2-.6-.1.3-.2.6-.3.8.3.1.6.2.9.3-.1.4-.1.4-.5.4-.1 0-.3 0-.4 0-.6-.1-1-.5-.9-1.2 0-.3.2-.6.3-.9.2-.4.5-.6.9-.5.5 0 .7.3.9.8.4 0 .8.1 1.2.2zm16.3 20.7c1.4 0 2.6-1 2.6-2.1 0-1.3-1-2.5-2.2-2.5-1.4 0-2.6 1-2.6 2.1 0 1 .7 2.5 2.2 2.5zm-4.5 23.4c-.7 1-1.4 2-2.2 3 .3.2.5.4.8.6.5-.6.9-1.3 1.4-1.9.3.2.5.3.7.5-.4.6-.8 1.1-1.2 1.7.3.2.5.3.7.5.4-.6.8-1.2 1.3-1.7.2.2.4.3.6.4-.5.6-.9 1.2-1.3 1.9.3.2.5.4.8.5.7-1 1.4-2 2.1-3-1.2-.9-2.5-1.7-3.7-2.5zm-42.7-43c-1 .7-2 1.4-3.1 2.1.9 1.2 1.7 2.4 2.6 3.6 1.1-.7 2.1-1.4 3.1-2.1-.2-.3-.4-.6-.6-.8-.7.4-1.3.9-2 1.3-.2-.3-.4-.5-.5-.8.6-.4 1.2-.8 1.8-1.2-.2-.3-.4-.5-.5-.7-.6.4-1.2.8-1.8 1.2-.1-.2-.3-.4-.4-.6.7-.4 1.3-.9 1.9-1.3-.2-.2-.3-.5-.5-.7zm-6.5 8.9c-.3-.2-.5-.3-.7-.5-.4.6-.9 1.1-1.3 1.7-.2-.1-.4-.3-.6-.4.5-.6.9-1.2 1.4-1.8-.3-.2-.5-.4-.8-.5-.7 1-1.5 2-2.2 2.9 1.2.9 2.4 1.7 3.7 2.6.8-1 1.5-2 2.2-3-.3-.2-.5-.4-.8-.6-.4.6-.9 1.2-1.3 1.7-.1.1-.2.2-.3.1-.1-.2-.4-.2-.5-.4.4-.6.8-1.2 1.2-1.8zm43.8 40.4c.3.2.5.5.7.6.6-.6 1.2-1.1 1.7-1.6.2.2.4.4.6.6-.5.5-1 1-1.5 1.6.2.2.5.4.6.5.5-.5 1-1 1.6-1.5.2.1.3.3.6.5-.6.5-1.2 1-1.8 1.5.3.3.5.5.8.7.9-.9 1.7-1.8 2.6-2.7-1.1-1-2.2-2-3.3-3-.9 1-1.7 1.9-2.6 2.8zm-45.8-7.3c.2-.1.3-.2.4-.4.1-.1.1-.1.1-.2-.2-.4-.4-.7-.7-1.1-1 1.2-2 2.4-3.1 3.6.2.3.4.6.6 1 .1.3.3.3.5.3 1-.2 1.9-.3 2.9-.5.5-.1 1-.2 1.6-.3-.2-.3-.3-.5-.5-.8s-.3-.5-.7-.3c-.2.1-.4 0-.5-.2-.1-.3-.3-.7-.6-1.1zm23.8-42.5c0-.1-.1-.1-.1-.2-.7-1.2-1.5-2.4-2.2-3.6-.1-.2-.2-.3-.4-.2-.3.1-.6.1-.9.1s-.4.1-.4.4c-.2.9-.4 1.9-.5 2.8-.1.5-.2.9-.3 1.4.3 0 .5-.1.7-.1s.4-.1.7-.1c0-.3.1-.5.1-.7.4-.1.7-.1 1.1-.2.5-.1.5-.1.7.4 0 .2 0 .3.2.3.4-.1.8-.2 1.3-.3zm5.3.1c.3.1.6.1.9.2.4.1.6 0 .8-.4.1-.2.1-.2.3-.2.3.1.6.1.9.2.3 0 .5.1.5.5 0 .1-.1.3.2.4.4.1.8.1 1.3.2 0-.3-.1-.6-.2-.9-.2-1.2-.5-2.3-.6-3.5 0-.2-.1-.2-.3-.3-.3 0-.7-.1-1-.2-.2 0-.3 0-.4.2-.2.3-.4.7-.6 1-.7.9-1.2 1.8-1.8 2.8zm26.4 14.2c.3-.4.6-.8.5-1.4-.2-1.8-1.9-2.7-3.5-1.8-.7.4-1.3.9-1.3 1.9 0 .7.3 1.2.7 1.7.5.6 1.3.8 2.1.5-.1-.4-.2-.8-.3-1.1-.1 0-.2.1-.3.1-.4.1-.7-.1-.9-.5-.2-.3-.1-.6.2-.9.3-.2.5-.4.9-.5.5-.2.9-.1 1.1.2.3.3.3.7 0 1.1.2.1.5.4.8.7zm-61.8 12.3c-.9.2-1.3.9-1.4 1.8-.1 1.2.5 2 1.7 2.3.3.1.6.1.9 0 1.1-.1 1.8-.7 2-1.6.1-.5.1-1 0-1.5-.1-.6-.9-1.2-1.5-1.2-.1.4-.3.7-.3 1.1.1 0 .3.1.4.1.4.2.5.5.5.9 0 .3-.3.6-.7.7s-.8.1-1.2 0c-.3-.1-.6-.2-.7-.5-.1-.6 0-.8.6-1.1-.1-.2-.2-.6-.3-1zm3.2 10.4s0 .1 0 0c-.9.7-1.7 1.3-2.6 2 .2.4.3.9.5 1.3.3-.3.6-.6 1-.8.9-.7 1.7-1.4 2.6-2.1.1-.1.2-.2.1-.3-.1-.3-.2-.6-.3-1-.1-.2-.2-.2-.4-.3-.6 0-1.3 0-1.9 0-.9 0-1.8 0-2.7 0 .1.4.3.8.5 1.2 1 .1 2.1.1 3.2 0zm60.8.4c-1.1-.3-2.2-.7-3.2-1-.1.4-.2.7-.4 1.1-.1.2 0 .2.2.3l3 .9c-.1.4-.3.9-.4 1.3.4.1.7.2 1 .3.4-1.3.9-2.6 1.3-3.9-.4-.1-.7-.2-1.1-.3-.1.4-.3.8-.4 1.3zm-5.5 4.3c1 .5 2 1 3.1 1.4-.2.3-.3.6-.4.9-.1.2-.1.4.1.5s.5.2.7.3c.6-1.2 1.2-2.5 1.9-3.7-.3-.2-.7-.3-1-.5-.2.4-.4.8-.6 1.2-1-.5-2-1-3.1-1.4-.3.5-.5.9-.7 1.3zm-54.8-22.6c-1.1-.4-2.2-.7-3.2-1.1-.2.4-.3.8-.5 1.3 1.4.5 2.8.9 4.3 1.4.4-1.1.8-2.2 1.2-3.3-.4-.1-.7-.2-1-.4-.3.8-.5 1.4-.8 2.1zm1.7-3.9c-1-.5-2-1-3.1-1.5-.2.4-.4.8-.6 1.2 1.4.7 2.7 1.3 4 2 .5-1 1.1-2.1 1.6-3.1-.4-.1-.6-.4-1-.4-.3.6-.6 1.2-.9 1.8zm55.9 19.2c1.5.3 3 .5 4.5.8.1-.5.2-.9.2-1.3-1.5-.2-3-.5-4.5-.7-.1.3-.1.7-.2 1.2zm-13.8-35.3c-.7 1.3-1.3 2.6-2 3.9.4.2.8.4 1.3.6.7-1.3 1.3-2.6 2-3.9-.5-.2-.9-.4-1.3-.6zm-45 34.6c.1.4.2.8.2 1.3.4-.1.8-.1 1.2-.2-.1-.4-.2-.8-.3-1.3-.3.1-.7.1-1.1.2zm3 5.5c-.4.2-.8.3-1.1.5.2.4.4.8.5 1.2.4-.2.8-.3 1.1-.5-.2-.4-.3-.8-.5-1.2zm3.3 7.7c.3-.2.6-.5.9-.7.1-.1 0-.1 0-.2-.2-.3-.5-.6-.7-.9-.3.3-.7.5-1 .7.2.5.5.8.8 1.1z" fill="#fefefe"/><path d="m22.6 74.1c.5.1.9.2 1.3.4 3.1.9 6.2 1.6 9.3 2.3 1.7.4 3.5.7 5.3.9 2.4.4 4.8.6 7.3.8 2.4.1 4.8.2 7.2 0 1.8-.1 3.6-.2 5.4-.4 1.6-.2 3.2-.4 4.8-.7s3.2-.6 4.7-1c2.8-.6 5.5-1.3 8.2-2.1.1 0 .2-.1.3-.1.1.2.1.3.1.5v11.8c0 .2-.1.3-.3.4-2.8.5-5.6 1.1-8.4 1.5-2.5.4-5 .8-7.5 1-1.9.2-3.9.4-5.8.5-.7 0-1.4.1-2.1.1-.6 0-1.3 0-1.9 0-2.3 0-4.6 0-6.9-.1-3.2-.2-6.4-.5-9.6-1-3-.5-6-1-8.9-1.7-.8-.2-1.7-.4-2.5-.6 0-4.1 0-8.2 0-12.5zm22 12c1 0 1.9.1 2.8-.1.9-.1 1.5-.7 1.7-1.5.1-.6.1-1.3 0-1.9-.2-.7-.6-1.3-1.4-1.5-1-.2-2-.1-3.1-.1zm-11-1.2c-.9 0-1.8 0-2.7 0 0-.3 0-.6 0-1h2.4c0-.4 0-.7 0-1-.8 0-1.6 0-2.4 0 0-.3 0-.5 0-.8h2.6c0-.4 0-.7 0-1-1.4 0-2.7 0-4.1 0v5h4.2c0-.4 0-.8 0-1.2zm2.1-.5c-.3 0-.5 0-.7 0s-.5 0-.7.1c0 .8.5 1.4 1.3 1.6.6.1 1.2.2 1.8 0 .8-.2 1.4-.7 1.4-1.5.1-.8-.3-1.3-1.2-1.6-.4-.1-.9-.2-1.3-.4-.2-.1-.4-.1-.4-.4s.2-.3.5-.3c.4 0 .6.1.9.6.5 0 .9 0 1.4-.1-.1-.7-.4-1.1-1.1-1.3s-1.5-.2-2.2.1c-.6.2-.9.8-.9 1.4 0 .5.4.9.8 1.1.5.3 1.1.3 1.6.5.2.1.4.3.4.5-.1.3-.3.4-.5.4-.7.1-.9 0-1.1-.7zm21.9-1c-.7.5-.9.9-.8 1.6.1.6.6 1 1.2 1.1s1.1.1 1.7 0c.9-.2 1.3-1 1-1.9-.1-.4-.4-.5-.6-.8.4-.4.7-.8.6-1.3-.2-.6-.6-.9-1.2-1-.4-.1-.8-.1-1.2 0-.6.1-1.2.4-1.3 1-.2.5 0 .9.6 1.3zm4.6 0c-.7.3-.9.8-.8 1.5.1.6.5 1.1 1.2 1.2.6.1 1.2.1 1.8 0 .9-.2 1.4-1.5.8-2.2-.1-.2-.4-.2-.5-.4.5-.3.7-.8.6-1.3-.1-.6-.6-.8-1.2-1-.4-.2-.7-.2-1.1-.2-.6 0-1.2.5-1.4 1-.1.5.1 1 .6 1.4zm7.9-1.2c-.2-.6-.5-1-1.1-1.1-.4-.1-.8-.1-1.2 0-.7.1-1.3.5-1.5 1.2-.2.6-.2 1.3-.1 2 0 .4.2.8.4 1.2.5.7 1.3.8 2.1.7.7-.1 1.3-.5 1.5-1.3.3-1.2-.7-2.3-1.9-2-.3.1-.5.3-.8.4 0-.2.1-.4.1-.7 0-.1 0-.2.1-.3.1-.4.5-.5.8-.4.2.1.2.3.3.5.4-.1.8-.2 1.3-.2zm-29.3.1v3.7h1.5c0-1.3 0-2.5 0-3.7h1.5c0-.4 0-.8 0-1.2-1.6 0-3.1 0-4.6 0v1.2zm14.4-1.3c-.3 0-.7 0-1 0-.1 0-.1 0-.2.1-.3.6-.9.9-1.5 1.2-.1 0-.2.1-.2.2v1c.5-.1 1-.4 1.5-.7v3.3h1.4c0-1.8 0-3.4 0-5.1z" fill="#fefefe"/><path d="m83.1 74.6c-.1-.3-.2-.5-.3-.8-1.7.7-3.5 1.4-5.3 2-.1-.5-.1-.5.3-.7 1.5-.5 2.9-1 4.4-1.6.1 0 .1-.1.2-.1-.1-.3-.2-.5-.3-.8-1.5.6-3.1 1.2-4.6 1.7 0-.4 0-.8 0-1.3-1.9.6-3.7 1.1-5.7 1.6.6-1.5 1.1-3 1.7-4.5 1.3 1 2.7 1.9 4 2.8.2-.1 15-10.6 15.2-10.7-1 2.6-2 5.2-3 7.8 2.8 1.2 5.6 2.4 8.4 3.6-1.6 1.5-17.9 8.9-20.6 9.4 0-.6 0-1.1 0-1.7 0-.2.2-.2.3-.2 1.5-.5 3-1 4.5-1.6.9-.4 1.9-.7 2.8-1.1-.1-.3-.2-.5-.3-.8-2.4 1-4.8 1.9-7.2 2.6-.1-.2 0-.4 0-.6s.2-.2.3-.2c2.1-.7 4.2-1.4 6.3-2.3.1-.1.3-.1.5-.2-.1-.3-.2-.5-.3-.8-2.2.9-4.4 1.7-6.6 2.4-.1-.4.1-.6.4-.7 2-.6 3.9-1.4 5.8-2.1.1 0 .1 0 .2-.1-.1-.3-.2-.5-.3-.8-2 .8-4 1.6-6 2.2-.1-.2 0-.3 0-.5 1.4-.5 3.3-1.1 5.2-1.9z" fill="#fefefe"/><path d="m7.1 61.5c.2-.1.3.1.3.1 2.2 1.6 4.5 3.2 6.7 4.8 2 1.4 4 2.9 6 4.3.8.5 1.5 1.1 2.3 1.7 1.1-.9 2.2-1.8 3.3-2.7.8 1.6 1.5 3.3 2.3 4.9-2.1-.5-4.2-1.1-6.2-1.7v.7c-1.3-.5-2.6-1-3.9-1.5-.2.2-.2.5-.4.8.5.2 1.1.5 1.6.7.7.3 1.5.6 2.2.8.4.2.4.2.4.7-1.7-.5-3.3-1.2-4.9-1.9-.2.2-.2.5-.4.8.9.3 1.7.7 2.6 1 .5.2 1 .4 1.5.6.3.1.6.2 1 .4.4.1.4.1.3.6-1.9-.7-3.7-1.4-5.6-2.2-.1.3-.2.5-.4.8.6.3 1.2.5 1.8.8 1.2.5 2.5 1 3.8 1.5.5.2.5.1.4.7-2.1-.7-4.2-1.6-6.2-2.5-.2.2-.2.5-.4.8.4.2.9.4 1.3.6 1.6.7 3.2 1.3 4.8 1.9.6.2.6.2.5.9-2.4-.9-4.6-1.9-6.8-3-.1.3-.3.5-.4.8.7.3 1.4.7 2 1 .5.2 1 .5 1.4.6 1 .4 2 .9 3.1 1.2.5.2.5.2.5.7v1c-2.3-.4-17.2-7.6-19.8-9.5 2.6-1.2 5.2-2.4 7.8-3.6-.4-1.2-.8-2.4-1.2-3.6-.4-1.3-.8-2.6-1.3-4z" fill="#fefefe"/><path d="m7.1 61.5c0-.1 0-.1 0 0z" fill="#fefefe"/><path d="m72.8 69.1c.1 0 .1 0 0 0z" fill="#fefefe"/><g fill="#2e2b75"><path d="m24.4 38.3c0-13.8 10.5-23.8 21.7-25.3 8.4-1.2 15.8 1.2 21.9 7.1 5.2 5 7.7 11.3 7.6 18.5 0 14-11.4 25.4-25.5 25.4-14.2 0-25.8-11.5-25.7-25.7zm.8.7c.1 1.1.1 2.2.3 3.3 0 .1 0 .3.2.3-.2.3-.1.6.1.9-.2.1-.1.3-.1.3.3 1.5.8 2.9 1.4 4.3.3.5.3 1.1.8 1.4 0 .3.2.5.3.7.2.3.3.6.5.8s.2.5.5.7c.1.3.4.6.5.9.2.3.3.6.6.8.2.3.5.6.7.9.3.4.5.8.9 1 .4.5.9.9 1.3 1.4h.1c.4.5 1 .9 1.5 1.3.4.2.7.5 1 .7.2.1.4.2.6.4.4.2.7.5 1.1.7.3.1.6.4 1 .5.5.4 1.2.6 1.7.9.8.4 1.6.7 2.5.9.5.1 1.1.3 1.6.4.1.1.1.1.2.1 4.8 1 9.6.7 14.2-1.1.3-.2.7-.2 1-.5.3 0 .5-.1.7-.3.7-.3 1.3-.7 2-1.1.6-.4 1.3-.8 1.9-1.3.5-.2.9-.6 1.3-.9.3-.2.6-.4.8-.7.2-.1.4-.3.6-.5s.5-.5.7-.7c.1-.1.2-.2.3-.4.2-.3.4-.5.7-.8.3-.4.6-.7.9-1.1.3-.5.7-.9 1-1.4.2-.2.4-.5.6-.8.1-.3.4-.6.4-1 .1-.2.4-.3.4-.6.3-.4.5-.9.7-1.3.1-.2.2-.4.2-.5.4-1.2.8-2.3 1.1-3.5.2-.7.3-1.4.4-2.2.1-.3.1-.6.1-.9.2-.1.1-.3.1-.5.1-1.1.1-2.1.1-3.2-.1-.2 0-.4 0-.5 0-.2 0-.4-.1-.5.1-.1.1-.2.1-.3-.1-1.1-.3-2.2-.5-3.2s0 0-.1-.1c0-.3 0-.6-.2-.9 0-.1 0-.2 0-.3-.3-.8-.5-1.7-.9-2.5-.4-.9-.8-1.8-1.3-2.7-.1-.3-.2-.6-.5-.8 0-.1 0-.1-.1-.2-1.3-2.1-2.9-4-4.8-5.6-.2-.3-.5-.4-.7-.6-.1-.1-.1-.1-.2-.2-1.9-1.5-3.9-2.7-6.1-3.6-1.2-.5-2.3-.9-3.6-1.1-.3-.3-.6-.1-.9-.2 0 0-.1 0-.1-.1-1-.2-2-.3-3-.4-1.7-.1-3.4-.1-5 .1-.9.1-1.8.3-2.7.4-.6.1-1.1.3-1.7.5-.2.1-.5.1-.7.3-.3 0-.6.1-.8.3-.9.3-1.6.7-2.4 1.1-1 .5-1.9 1-2.8 1.6-.7.5-1.4 1-2.1 1.7-.1.1-.3.1-.3.4-.3.1-.5.3-.6.6-.1 0-.2.1-.2.2-1.3 1.3-2.5 2.7-3.5 4.3-.3.4-.6.8-.7 1.3-.4.1-.3.5-.4.8h-.1c-.7 1.4-1.3 2.9-1.7 4.5-.1.4-.3.8-.3 1.3-.3.3-.2.6-.2 1-.2.9-.3 1.8-.3 2.8 0 .4-.1.8 0 1.3v.1c-.1.2-.1.6 0 .9z"/><path d="m45 68.5c-.3-.9-.8-1.5-1.2-2.3 1.2.4 2.1 1 2.4 2.3.1.4.3.6.8.7 1 .2 2.1.4 3.1.6h.3c1.1-.3 2.2-.6 3.4-.9.2 0 .3-.1.3-.3 0-.1 0-.1.1-.2.2-1.3 1.1-2.1 2.3-2.5-.4.7-.9 1.4-1.1 2.3.6-.1 1.2-.2 1.8-.3.2 0 .1-.1.2-.2 0-.3.1-.7.1-1 .1-.6.4-1 .9-1.3.3-.1.5-.3.9-.4-.2.4-.4.8-.5 1.2-.2.4-.2.8-.2 1.3.6-.2 1.2-.3 1.8-.5.2-.1.2-.2.2-.3 0-.4 0-.8.1-1.2.1-.8.7-1.3 1.5-1.7-.3.9-.6 1.7-.4 2.6.5-.1 1.1-.3 1.6-.4.2 0 .2-.1.2-.3 0-.4 0-.8 0-1.2 0-.8.3-1.4 1-1.9.2-.1.4-.3.7-.5-.4 1-.8 2-.4 3.1.9-.9 1.8-1.9 3.1-2.3.4-.1.9-.2 1.3-.2-.6 1.8-2.2 2.4-3.8 3.1 1.2.3 2.2.2 3.3-.1-.5.9-1.7 1.5-2.8 1.3-.5-.1-1-.2-1.5-.4-.1-.1-.2-.1-.3-.1-.6.2-1.1.4-1.7.5 1 1 2.1.6 3.3.6-.9 1.2-2.5 1.5-3.9.7-.2-.1-.3-.2-.4-.3-.2-.2-.5-.3-.8-.2-.5.1-1.1.2-1.7.3.9 1 2.1.9 3.4 1-.6.6-1.2.9-2 .9-.9 0-1.6-.4-2.2-1-.2-.2-.3-.2-.6-.2-.8.1-1.2.2-1.6.2-.1 0-.3 0-.4.1.7 1.1 1.8 1 3 1.2-1.1.6-2.1.7-3.1.1-.4-.2-.7-.4-1-.7-.1-.1-.2-.1-.4-.1-1.2.3-2.5.6-3.7.9-.4.1-.8-.1-1.2-.1-1-.2-2-.4-3-.6-.2 0-.4 0-.5.2-.6.5-1.2 1-2 1.1-.7.1-1.3-.1-2-.4 1.1-.2 2.3-.2 3-1.4-.7 0-1.3-.1-1.9-.1-.1 0-.2.1-.3.2-.6.6-1.3 1-2.2 1.1-.8 0-1.4-.2-2-.8 1.2-.1 2.4-.2 3.4-1.2-.7-.1-1.4-.2-2-.2-.2 0-.2.1-.3.2-.6.5-1.3.8-2 .9-1 .1-1.7-.3-2.4-1h1.1c.5 0 1 0 1.5-.2.2-.1.4-.3.6-.5-.6-.2-1.2-.3-1.8-.5-.1 0-.2.1-.3.1-.7.3-1.4.6-2.1.5-.9 0-1.5-.5-2.1-1.2.6.1 1.1.2 1.6.2s1.1-.1 1.7-.3c-1.6-.6-3.2-1.1-3.9-2.9 1.9-.2 3.2 1.1 4.5 2.2.3-1.1-.1-2.1-.6-3 .9.2 1.7 1.1 1.8 2.1 0 .5.1 1 .1 1.6.6.1 1.2.2 1.8.4.2-.5.1-.8-.4-2.5.8.2 1.4 1 1.6 2v.4c.1.7.1.7.8.8.4.1.8.2 1.3.3 0-.9-.4-1.6-.9-2.3 1.1.2 1.7.8 1.9 1.9v.3c.1.7.1.7.8.7.1-.1.5-.1 1 0z"/><path d="m40.3 11.4c-.3.1-.6.4-.9.3s-.4-.5-.6-.7c-.4-.6-.9-1.2-1.3-1.8h-.1c.4.9.7 1.9 1.1 2.8-.4.1-.7.3-1.1.4-.5-1.4-1.1-2.7-1.6-4.1.6-.2 1.1-.4 1.7-.6.5.7 1.1 1.4 1.6 2.2h.1c-.2-.9-.3-1.8-.4-2.7.6-.2 1.2-.4 1.7-.6.5 1.4 1.1 2.7 1.6 4.1-.3.2-.7.3-1 .4-.4-1-.8-1.9-1.1-2.8h-.1c.1 1 .2 2 .4 3.1z"/><path d="m78.6 32.2c-.1-.4-.1-.7-.2-1.1 1.5-.3 3-.6 4.4-.8.1.6.2 1.2.4 1.7-.8.4-1.6.8-2.5 1.1v.1c.8 0 1.6.1 2.4.1.2 0 .3.1.4.3.1.5.2.9.3 1.4-1.5.3-3 .6-4.4.8-.1-.4-.1-.7-.2-1.1 1.1-.2 2.1-.4 3.2-.6-1.1-.1-2.2-.1-3.4-.2-.1-.3-.2-.6-.2-1 1-.5 2-.9 3.1-1.4-1.1.3-2.2.5-3.3.7z"/><path d="m79.3 39.8c0-.3 0-.7 0-1 1.1-.3 2.1-.5 3.2-.7v-.1c-1 0-2.1 0-3.1 0 0-.4 0-.8 0-1.1h4.5v1.8c-.9.2-1.8.4-2.7.6v.1c.9.2 1.7.5 2.6.7v1.7c-1.5 0-3 0-4.5 0 0-.4 0-.7 0-1.1h3.3c-1.2-.3-2.3-.6-3.3-.9z"/><path d="m49.3 9.7c-.5 0-.9 0-1.3 0 0-1.5 0-2.9 0-4.4h1.2c.1 0 .2.1.2.2.5.7 1 1.5 1.6 2.2 0-.8 0-1.5 0-2.3h1.3v4.4c-.4 0-.8 0-1.2 0-.1 0-.2-.1-.2-.2-.5-.7-.9-1.4-1.4-2.1 0 0 0-.1-.2-.1z"/><path d="m68.8 13.7c.5-.6.9-1.2 1.4-1.9.4.2.7.5 1.1.7-.9 1.2-1.7 2.4-2.6 3.6-.3-.2-.7-.4-1-.7-.1-.1-.1-.2-.1-.3 0-.8 0-1.7 0-2.6-.5.7-.9 1.3-1.4 1.9-.4-.2-.7-.5-1.1-.7.9-1.2 1.7-2.4 2.6-3.6.3.2.6.4.9.6.1.1.1.2.1.3v2.4c.1.2.1.2.1.3z"/><path d="m30.4 59.4c-.4.4-.8.7-1.2 1-.7.6-1.3 1.2-2 1.7-.1.1-.2.2-.4 0-.4-.5-.9-1-1.4-1.5-.7-.8-.7-1.6 0-2.4.2-.3.5-.5.8-.8.8-.6 1.6-.6 2.4.1.1.1.2.2.3.3.5.6 1 1 1.5 1.6zm-3.5 1.3c.6-.6 1.2-1.1 1.8-1.6-.7-.8-1-.9-1.8-.2-.8.6-.8 1 0 1.8z"/><path d="m28.8 14.1c-.2.2-.3.4-.5.6s-.3.4-.7.3c-.5-.1-1.1.6-.9 1.1.2.6.6 1 1.2 1.3.5.2 1-.1 1.3-.7.2-.3.2-.5-.2-.7-.2.2-.4.4-.7.6-.2-.2-.4-.4-.6-.7.5-.5 1-.9 1.5-1.3.4.4.9.8 1.3 1.2.1.1.1.2.1.3-.3 1.2-1 2-2.1 2.5-.4.1-.8.1-1.1 0-.7-.2-1.2-.7-1.6-1.3-.5-.9-.3-1.7.4-2.4.3-.3.6-.5.9-.7.5-.4 1.1-.4 1.7-.1z"/><path d="m18.7 30.7c1.5.1 2.5.8 2.5 2.1 0 1.5-.9 2.5-2.2 2.5-1.6 0-2.6-.9-2.5-2.2 0-1.4.9-2.4 2.2-2.4zm.4 3.3h.4c.4-.1.6-.3.7-.7.1-.3 0-.6-.2-.8-.5-.4-1.1-.5-1.7-.3-.4.1-.6.5-.6.9 0 .3.3.7.5.8.2-.1.5.1.9.1z"/><path d="m74.8 17.6c-.1-.1-.1-.1-.2-.1-.3-.2-.6-.4-.9-.6.2-.5 0-.8-.4-1.1s-.8-.2-1.1 0-.5.4-.7.7c-.3.5-.3.9.2 1.3.1.1.3.2.5.3.3.1.5.1.6-.2-.1-.3-.4-.4-.6-.7.2-.2.4-.4.6-.6l1.5 1.5c-.4.4-.8.8-1.3 1.2-.1.1-.2.1-.3.1-1-.2-1.8-.7-2.4-1.6-.4-.7-.4-1.3 0-2 .6-1 1.7-1.6 2.7-1.3.9.3 1.6 1 1.9 1.9.3.4.2.8-.1 1.2z"/><path d="m63.1 9.1c-.4-.1-.9-.1-1.3-.2-.1-.5-.4-.7-.9-.8-.4 0-.7.2-.9.5s-.3.6-.3.9c-.1.6.3 1.1.9 1.2h.4c.4 0 .4 0 .5-.4-.3-.2-.6-.2-.9-.3.1-.3.2-.5.3-.8.7.2 1.3.4 2 .6 0 .2-.1.4-.2.7 0 .2-.2.3-.2.5 0 .6-.4.7-.9.8-.9.1-1.7 0-2.4-.5-.9-.5-1.1-1.4-.8-2.4.4-1.4 1.6-2 3-1.5.3.1.6.2.9.4.7.1.9.6.8 1.3z"/><path d="m79.4 29.8c-1.5 0-2.2-1.4-2.2-2.5s1.2-2.1 2.6-2.1c1.2 0 2.2 1.2 2.2 2.5 0 1.1-1.2 2.1-2.6 2.1zm1.4-2.5c0-.5-.4-.9-1-.9-.5 0-.9.2-1.3.5-.3.2-.4.6-.2 1s.5.6.9.5.8-.2 1.2-.4c.3-.1.4-.3.4-.7z"/><path d="m74.9 53.2c1.3.8 2.5 1.7 3.7 2.5-.7 1-1.4 2-2.1 3-.3-.2-.5-.3-.8-.5.4-.6.9-1.2 1.3-1.9-.2-.1-.4-.3-.6-.4-.4.6-.8 1.1-1.3 1.7-.2-.2-.5-.3-.7-.5.4-.6.8-1.1 1.2-1.7-.2-.2-.5-.3-.7-.5-.5.6-.9 1.3-1.4 1.9-.3-.2-.6-.4-.8-.6.7-1 1.5-2 2.2-3z"/><path d="m32.2 10.2c.2.2.4.5.6.8-.6.4-1.3.9-1.9 1.3.1.2.3.4.4.6.6-.4 1.2-.8 1.8-1.2.2.2.3.5.5.7-.6.4-1.2.8-1.8 1.2.1.3.3.5.5.8.7-.5 1.3-.9 2-1.3.2.2.4.5.6.8-1 .7-2.1 1.4-3.1 2.1-.9-1.2-1.7-2.4-2.6-3.6.9-.8 2-1.5 3-2.2z"/><path d="m25.7 19.1c-.4.6-.9 1.1-1.3 1.7.2.2.4.2.5.4.1.1.2.1.3-.1.4-.6.9-1.1 1.3-1.7.3.2.5.4.8.6-.7 1-1.5 2-2.2 3-1.2-.9-2.4-1.7-3.7-2.6.7-1 1.5-1.9 2.2-2.9.3.2.5.4.8.5-.5.6-.9 1.2-1.4 1.8.2.1.4.3.6.4.4-.6.9-1.1 1.3-1.7.3.3.5.5.8.6z"/><path d="m69.5 59.5c.9-.9 1.7-1.8 2.6-2.7 1.1 1 2.2 2 3.3 3-.9.9-1.7 1.8-2.6 2.7-.2-.2-.5-.4-.8-.7.6-.5 1.2-1 1.8-1.5-.3-.2-.4-.4-.6-.5-.5.5-1 1-1.6 1.5-.2-.1-.4-.3-.6-.5.5-.5 1-1 1.5-1.6-.2-.2-.4-.4-.6-.6-.6.5-1.1 1.1-1.7 1.6-.2-.3-.4-.5-.7-.7z"/><path d="m23.7 52.2c.3.4.5.8.7 1.2.1.2.3.3.5.2.3-.2.5 0 .7.3.1.3.3.5.5.8-.5.1-1 .2-1.6.3-1 .2-1.9.3-2.9.5-.3 0-.4 0-.5-.3-.2-.3-.4-.6-.6-1 1-1.2 2-2.4 3.1-3.6.2.4.5.8.7 1.1.1.1 0 .2-.1.2-.2.1-.3.2-.5.3zm-1.7 1.9c0 .1.1.1.1.1.5-.1 1-.2 1.5-.3-.2-.3-.3-.6-.5-.8-.4.3-.8.6-1.1 1z"/><path d="m47.5 9.7c-.5.1-.9.2-1.3.3-.2 0-.2-.1-.2-.2-.2-.4-.2-.4-.7-.4-.4.1-.7.1-1.1.2 0 .2-.1.5-.1.7-.2 0-.4.1-.7.1-.2 0-.5.1-.7.1.1-.5.2-1 .3-1.4.2-.9.4-1.9.5-2.8 0-.3.2-.4.4-.4.3 0 .6-.1.9-.1.2-.1.3 0 .4.2.7 1.2 1.5 2.4 2.2 3.6 0 0 .1.1.1.1zm-2.2-1.3c-.3-.5-.5-1-.8-1.5-.1.6-.1 1.1-.2 1.7.3 0 .6-.1 1-.2z"/><path d="m52.8 9.8c.6-1 1.2-1.9 1.7-2.8.2-.3.4-.7.6-1 .1-.2.2-.2.4-.2.3.1.7.1 1 .2.2 0 .3.1.3.3.2 1.2.5 2.3.6 3.5 0 .3.2.6.2.9-.4-.1-.9-.1-1.3-.2-.2 0-.2-.3-.2-.4 0-.3-.2-.5-.5-.5s-.6-.1-.9-.2c-.2 0-.3 0-.3.2-.1.4-.4.5-.8.4-.2-.1-.5-.2-.8-.2zm2.9-2.8c-.3.5-.5 1-.7 1.4.3.1.6.2 1 .1-.1-.5-.1-1-.2-1.5 0 .1 0 .1-.1 0z"/><path d="m79.2 24c-.3-.3-.6-.6-.8-.8.3-.5.3-.8 0-1.1s-.6-.4-1.1-.2c-.3.1-.6.3-.9.5-.3.3-.4.6-.2.9.2.4.5.6.9.5.1 0 .2 0 .3-.1.2.4.2.8.3 1.1-.8.3-1.5.1-2.1-.5-.4-.5-.8-1.1-.7-1.7 0-.9.6-1.5 1.3-1.9 1.6-.9 3.3 0 3.5 1.8 0 .7-.2 1.1-.5 1.5z"/><path d="m17.4 36.3c.1.4.2.8.3 1.1-.6.3-.7.6-.6 1.1.1.3.4.5.7.5.4.1.8.1 1.2 0s.6-.3.7-.7c0-.4-.1-.7-.5-.9-.1 0-.2-.1-.4-.1 0-.4.2-.8.3-1.1.5 0 1.4.6 1.5 1.2.1.5.1 1 0 1.5-.2.9-.9 1.5-2 1.6-.3 0-.6 0-.9 0-1.2-.3-1.8-1.1-1.7-2.3.1-1 .5-1.6 1.4-1.9z"/><path d="m20.6 46.7c-1.1 0-2.2.1-3.3.1-.2-.4-.3-.8-.5-1.2h2.7 1.9c.2 0 .3.1.4.3.1.3.2.6.3 1 .1.1 0 .2-.1.3-.9.7-1.7 1.4-2.6 2.1-.3.2-.6.5-1 .8-.2-.5-.3-.9-.5-1.3.9-.7 1.8-1.4 2.7-2.1z"/><path d="m81.4 47.1c.2-.5.3-.9.5-1.3.3.1.7.2 1.1.3-.4 1.3-.9 2.6-1.3 3.9-.4-.1-.7-.2-1-.3.1-.4.3-.9.4-1.3-1-.3-2-.6-3-.9-.2-.1-.2-.1-.2-.3.1-.3.2-.7.4-1.1.9.3 2 .7 3.1 1z"/><path d="m75.9 51.4c.2-.4.4-.8.6-1.2 1 .5 2 1 3.1 1.4.2-.4.4-.8.6-1.2.3.2.6.3 1 .5-.6 1.2-1.2 2.5-1.9 3.7-.3-.1-.5-.2-.7-.3s-.2-.3-.1-.5c.1-.3.3-.6.4-.9-.9-.5-1.9-1-3-1.5z"/><path d="m21.1 28.8c.2-.7.5-1.3.7-2 .4.1.7.2 1 .4-.4 1.1-.8 2.2-1.2 3.3-1.4-.5-2.8-.9-4.3-1.4.2-.4.3-.8.5-1.3 1.2.3 2.2.7 3.3 1z"/><path d="m22.8 24.9c.3-.6.7-1.2 1-1.9.4.1.6.3 1 .4-.5 1-1.1 2.1-1.6 3.1-1.3-.7-2.7-1.3-4-2 .2-.4.4-.8.6-1.2 1 .6 2 1.1 3 1.6z"/><path d="m78.7 44.1c.1-.5.2-.9.2-1.3 1.5.2 3 .5 4.5.7-.1.5-.2.9-.2 1.3-1.6-.2-3-.5-4.5-.7z"/><path d="m64.9 8.8c.4.2.8.4 1.3.6-.7 1.3-1.3 2.6-2 3.9-.4-.2-.8-.4-1.3-.6.7-1.3 1.3-2.6 2-3.9z"/><path d="m19.9 43.4c.4-.1.8-.1 1.2-.2.1.4.2.8.3 1.3-.4.1-.8.1-1.2.2-.1-.5-.2-.9-.3-1.3z"/><path d="m22.9 48.9c.2.4.4.8.5 1.2-.4.2-.7.3-1.1.5-.2-.4-.4-.8-.5-1.2.3-.1.7-.3 1.1-.5z"/><path d="m26.2 56.6c-.3-.3-.5-.6-.8-1 .3-.3.6-.5 1-.7.2.3.5.6.7.9 0 .1.1.1 0 .2-.3.2-.6.5-.9.6z"/><path d="m44.6 86.1c0-1.7 0-3.3 0-5 1 0 2-.1 3.1.1.8.2 1.2.7 1.4 1.5.2.6.2 1.3 0 1.9-.2.8-.8 1.4-1.7 1.5-.9 0-1.8-.1-2.8 0zm1.5-1.2h.7c.5-.1.6-.2.8-.7.1-.3.1-.7 0-1-.1-.6-.3-.9-.8-1-.2 0-.4 0-.7 0z"/><path d="m33.6 84.9v1.1c-1.4 0-2.8 0-4.2 0 0-1.6 0-3.3 0-5h4.1v1c-.9 0-1.7 0-2.6 0v.8h2.4v1c-.8 0-1.6 0-2.4 0v1c1 .1 1.8.1 2.7.1z"/><path d="m35.7 84.4c.2.7.5.8 1 .8.3 0 .5-.2.5-.4.1-.3-.1-.4-.4-.5-.5-.2-1.1-.3-1.6-.5s-.8-.5-.8-1.1.3-1.1.9-1.4c.7-.3 1.4-.3 2.2-.1.7.2 1 .6 1.1 1.3-.5.1-.9.1-1.4.1-.3-.5-.4-.7-.9-.6-.2 0-.4.1-.5.3 0 .3.2.3.4.4.4.1.9.2 1.3.4.9.3 1.3.8 1.2 1.6-.1.7-.6 1.3-1.4 1.5-.6.1-1.2.1-1.8 0-.7-.2-1.2-.8-1.3-1.6.2-.1.5-.1.7-.1.3-.1.5-.1.8-.1z"/><path d="m57.6 83.4c-.6-.4-.8-.8-.6-1.4.2-.7.7-.9 1.3-1 .4-.1.8-.1 1.2 0 .6.1 1 .4 1.2 1 .1.6-.1 1-.6 1.3.2.2.5.4.6.8.3.9-.1 1.7-1 1.9-.6.1-1.1.1-1.7 0s-1.1-.5-1.2-1.1.1-1.1.8-1.5zm1.9 1.1c0-.6-.3-.7-.7-.7s-.7.3-.6.8c0 .4.3.7.7.7.3 0 .6-.3.6-.8zm-.7-2.7c-.3 0-.6.2-.6.6 0 .3.2.6.6.6.3 0 .6-.2.6-.6 0-.3-.3-.6-.6-.6z"/><path d="m62.2 83.4c-.6-.4-.8-.8-.6-1.4.1-.5.7-.9 1.4-1h1.1c.6.1 1 .4 1.2 1 .1.6-.1 1-.6 1.3.1.2.3.3.5.4.6.8.1 2-.8 2.2-.6.1-1.2.1-1.8 0s-1-.6-1.2-1.2c-.1-.5.2-1 .8-1.3zm.6 1.1c0 .5.2.8.6.8s.7-.3.7-.7-.3-.8-.6-.8c-.4 0-.7.2-.7.7zm.6-1.5c.3 0 .6-.2.6-.6 0-.3-.2-.6-.6-.6-.3 0-.6.2-.6.6.1.3.3.6.6.6z"/><path d="m70.1 82.2c-.5.1-.9.1-1.3.2-.1-.2-.1-.4-.3-.5-.3-.1-.6.1-.8.4 0 .1-.1.2-.1.3 0 .2-.1.4-.1.7.3-.2.5-.4.8-.4 1.2-.2 2.2.8 1.9 2-.2.8-.8 1.3-1.5 1.3-.8.1-1.6 0-2.1-.7-.3-.3-.4-.7-.4-1.2-.1-.7-.1-1.3.1-2 .3-.7.8-1.1 1.5-1.2.4-.1.8-.1 1.2 0 .6.1.9.5 1.1 1.1zm-2.5 2.3c0 .3.1.6.4.8s.7 0 .8-.3c.2-.5.1-1.1-.3-1.3-.5-.3-.9.1-.9.8z"/><path d="m40.8 82.3c-.5 0-1 0-1.6 0 0-.4 0-.8 0-1.2h4.6v1.2c-.5 0-1 0-1.5 0v3.7c-.5 0-1 0-1.5 0 0-1.2 0-2.4 0-3.7z"/><path d="m55.2 81v5c-.5 0-.9 0-1.4 0 0-1.1 0-2.2 0-3.3-.5.3-.9.6-1.5.7 0-.3 0-.7 0-1 0-.1.1-.2.2-.2.6-.2 1.2-.6 1.5-1.2 0-.1.1-.1.2-.1.4.1.7.1 1 .1z"/></g><path d="m54.9 14c.3 0 .6-.1.9.2-.1.2-.1.4-.1.6-.2 2.3-.4 4.5-.6 6.8-.2 1.8-.3 3.7-.5 5.5-.1.7-.2 1.4-.2 2.1.7.2 1.5.3 2.2.5.2-1.3.4-2.6.6-3.9.3 0 .6.1.8.1-.2 1.3-.4 2.5-.6 3.7 0 .2 0 .3.2.4.4.1.8.3 1.2.5.2.1.4.1.5-.2 1.3-2.5 2.7-4.9 4.1-7.4.7-1.3 1.5-2.7 2.2-4 .2.2.6.3.7.6-.2 0-.2.2-.2.3-.9 1.6-1.7 3.1-2.6 4.7-1.1 2.1-2.3 4.1-3.4 6.2-.1.2 0 .3.1.3.3.2.6.3.9.5.2.1.4.1.5-.1.5-.6 1-1.3 1.4-1.9s.9-1.1 1.3-1.7c.3.2.5.3.7.5-1 1.2-1.9 2.5-2.8 3.7l.3.3c.4.3.9.6 1.3.9.2.2.4.2.6 0 1.6-1.8 3.1-3.6 4.7-5.5.7-.8 1.4-1.7 2.1-2.4.3.2.4.5.5.8-.1 0-.1.1-.2.1-1.4 1.6-2.7 3.2-4.1 4.8-.9 1-1.7 2-2.6 3 .3.3.7.6 1 .8 1.1-1.1 2.1-2.1 3.2-3.1.2.2.4.4.6.6-1.1 1-2.1 2.1-3.2 3.1.5.6 1 1.1 1.5 1.7.3-.2.5-.5.7-.7 1.7-1.6 3.5-3.3 5.2-4.9.2.3.2.6.2.9-.3.3-.5.5-.8.8-1 1-2.1 2-3.2 3-.5.5-.9 1-1.5 1.3-.1.1-.2.3-.1.4.3.5.7 1 1 1.5.7-.5 1.4-1 2.2-1.4 1-.6 1.9-1.3 2.9-1.9.2.1.1.3.1.5v.5c-.1-.2-.2 0-.2 0-.6.4-1.1.7-1.7 1.1-1 .6-1.9 1.3-2.9 1.9.3.6.6 1.2.9 1.8.1.1.1.1.3.1.6-.2 1.1-.4 1.7-.6s1.1-.5 1.7-.7c.1.3 0 .6-.1.9-1 .4-2.1.8-3.2 1.2.3.9.7 1.8.9 2.7.2.8.4 1.6.5 2.3-.2.5-.4.9-.7 1.3-.1 0 0-.2-.1-.2 0-.3 0-.6-.1-.9 0-.3 0-.5-.2-.8 0-.3 0-.6-.2-.8.1-.1 0-.2 0-.2-.4-1.3-.8-2.6-1.4-3.9-1.4-3-3.3-5.5-5.8-7.6-3.3-2.8-7.2-4.5-11.5-5.1-3.8-.5-7.6 0-11.2 1.4-3.2 1.3-6 3.2-8.3 5.7-2.2 2.4-3.8 5.2-4.7 8.3-.2.6-.4 1.1-.4 1.7-.1.3-.2.6-.1.9-.1.2-.2.5-.1.8.3.6.2.8.3 1.2-.5-.4-.5-1-.8-1.4.1-.1.1-.2.1-.3.2-1 .4-2 .7-3 .1-.2.2-.5.2-.7-.2 0-.3-.1-.5-.1-.6-.2-1.3-.3-1.9-.5-.3-.3-.3-.6-.1-.9.8.2 1.6.4 2.5.6.3.1.4 0 .5-.3s.2-.5.3-.8c.4-.9.5-.7-.3-1.2-1.1-.7-2.3-1.5-3.4-2.2 0-.3 0-.6 0-.8v-.1c1.5.9 3 1.9 4.5 2.8.3-.4.5-.8.7-1.2.3-.5.4-.4-.1-.9-.9-.9-1.9-1.9-2.8-2.8-.6-.6-1.3-1.3-1.9-1.9.1-.3 0-.7.2-1l.3.3c1.2 1.2 2.3 2.4 3.5 3.5.5.5 1 1.1 1.6 1.6l1.2-1.5c-1.2-1.2-2.4-2.4-3.6-3.6l.7-.7c.2.2.4.5.6.7.9.9 1.8 1.8 2.7 2.7.2.2.3.2.5 0s.4-.4.6-.6c.5-.4.5-.3.1-.9-2-2.5-4-4.9-6-7.4.1-.3.1-.6.4-.8.1.1.2.2.2.2 2 2.4 3.9 4.8 5.9 7.2.2.2.3.4.5.6.4-.3.7-.6 1.1-.9-1.1-1.6-2.1-3.2-3.2-4.8.2-.2.4-.4.7-.5 1.1 1.6 2.1 3.1 3.2 4.7.8-.5 1.5-1 2.3-1.4 0-.1-.1-.2-.1-.3-1.6-2.7-3.2-5.4-4.7-8.1-.5-.9-1.1-1.7-1.5-2.6.1-.3.3-.4.6-.6.1.1.2.3.2.4 1.8 3.1 3.6 6.1 5.4 9.2.3.5.6 1.1.9 1.6.6-.2 1.1-.5 1.7-.7-.6-1.5-1.2-2.9-1.8-4.3.3-.1.5-.2.8-.3.6 1.5 1.2 2.9 1.8 4.4.9-.3 1.8-.5 2.7-.8-1.4-4.7-2.8-9.4-4.1-14.1.3-.1.5-.3.8-.3.6 2.1 1.2 4.2 1.9 6.3.7 2.2 1.3 4.5 2 6.7.1.4.2.8.4 1.2.9-.1 1.7-.3 2.6-.3.3 0 .3-.1.3-.3 0-1.3 0-2.5 0-3.8 0-.3 0-.5 0-.8h.8v4.8c1.3 0 2.5.1 3.7.3.1-.4.1-.8.1-1.1.2-2.3.4-4.5.6-6.8.2-2.2.4-4.6.6-7z" fill="#d5432f"/><path d="m54.9 14c-.2 2.4-.4 4.8-.7 7.2-.2 2.3-.4 4.5-.6 6.8 0 .4 0 .7-.1 1.1-1.2-.2-2.4-.3-3.7-.3 0-1.6 0-3.2 0-4.8-.3 0-.5 0-.8 0-.1.2 0 .5 0 .8v3.8c0 .3-.1.3-.3.3-.9 0-1.7.2-2.6.3-.2-.4-.3-.8-.4-1.2-.7-2.2-1.3-4.5-2-6.7-.6-2.1-1.2-4.2-1.9-6.3.2-.2.5-.2.7-.3.5-.2 1.1-.4 1.7-.5.9-.2 1.8-.3 2.7-.4 1.7-.2 3.4-.3 5-.1 1 0 2 .1 3 .3z" fill="#fefefe"/><path d="m65.6 19.1c-.7 1.3-1.5 2.7-2.2 4-1.4 2.5-2.7 4.9-4.1 7.4-.1.2-.2.3-.5.2-.4-.2-.8-.3-1.2-.5-.2-.1-.2-.2-.2-.4.2-1.2.4-2.5.6-3.7-.3-.1-.5-.1-.8-.1-.2 1.3-.4 2.5-.6 3.9-.7-.2-1.5-.3-2.2-.5 0-.7.1-1.4.2-2.1.2-1.8.3-3.7.5-5.5.2-2.3.4-4.5.6-6.8 0-.2-.1-.4.1-.6 1.2.2 2.4.7 3.6 1.1 2.2.9 4.2 2.1 6.1 3.6 0-.1.1-.1.1 0z" fill="#fefefe"/><path d="m41 15.2c1.4 4.7 2.8 9.4 4.1 14.1-.9.2-1.8.5-2.7.8-.6-1.5-1.2-2.9-1.8-4.4-.3.1-.5.2-.8.3.6 1.4 1.2 2.9 1.8 4.3-.6.2-1.1.5-1.7.7-.3-.5-.6-1.1-.9-1.6-1.8-3.1-3.6-6.1-5.4-9.2-.1-.1-.2-.3-.2-.4 0-.2.2-.2.3-.4.6-.6 1.3-1.2 2.1-1.7.9-.6 1.8-1.2 2.8-1.6.8-.2 1.5-.6 2.4-.9z" fill="#fefefe"/><path d="m71.2 25.5c-.8.8-1.4 1.6-2.1 2.4-1.6 1.8-3.1 3.6-4.7 5.5-.2.2-.3.2-.6 0-.4-.3-.8-.6-1.3-.9-.1-.1-.2-.1-.3-.3.9-1.2 1.9-2.4 2.8-3.7-.2-.2-.4-.4-.7-.5-.4.6-.9 1.1-1.3 1.7-.5.6-1 1.2-1.4 1.9-.2.2-.3.3-.5.1-.3-.2-.6-.3-.9-.5-.1-.1-.2-.1-.1-.3 1.2-2.1 2.3-4.1 3.4-6.2.9-1.6 1.7-3.1 2.6-4.7.1-.1.1-.2.2-.3 1.9 1.6 3.5 3.5 4.8 5.6.1.1.1.1.1.2z" fill="#fefefe"/><path d="m32.8 20.6c.4.9 1 1.8 1.5 2.6 1.6 2.7 3.1 5.4 4.7 8.1 0 .1.1.1.1.3-.8.4-1.5.9-2.3 1.4-1.1-1.6-2.1-3.2-3.2-4.7-.3.1-.5.3-.7.5 1.1 1.6 2.1 3.2 3.2 4.8-.4.3-.7.6-1.1.9-.2-.1-.3-.4-.5-.6-2-2.4-3.9-4.8-5.9-7.2-.1-.1-.1-.2-.2-.2.1-.5.5-.9.7-1.3 1-1.6 2.1-3 3.5-4.3 0-.2.1-.3.2-.3z" fill="#fefefe"/><path d="m73.9 31.7c-1.7 1.6-3.5 3.3-5.2 4.9-.2.2-.5.4-.7.7-.5-.6-1-1.1-1.5-1.7 1.1-1 2.1-2.1 3.2-3.1-.2-.2-.4-.4-.6-.6-1.1 1-2.1 2.1-3.2 3.1-.3-.3-.6-.6-1-.8.9-1 1.7-2 2.6-3 1.4-1.6 2.7-3.2 4.1-4.8 0-.1.1-.1.2-.1.5.9.9 1.8 1.3 2.7.3.8.6 1.7.9 2.5-.1.1-.1.1-.1.2z" fill="#fefefe"/><path d="m27.9 27.1c2 2.5 4 4.9 6 7.4.5.6.4.4-.1.9-.2.2-.4.4-.6.6s-.3.1-.5 0c-.9-.9-1.8-1.8-2.7-2.7-.2-.2-.4-.4-.6-.7-.3.3-.4.4-.7.7l3.6 3.6c-.4.5-.8 1-1.2 1.5-.6-.5-1.1-1-1.6-1.6-1.2-1.2-2.3-2.3-3.5-3.5-.1-.1-.2-.2-.3-.3 0-.5.2-.9.3-1.3.6-1.7 1.2-3.1 1.9-4.6z" fill="#fefefe"/><path d="m28.8 51.1c-.2-.3-.3-.6-.5-.8 1.1-.1 2.2-.2 3.3-.1 1.4.2 2.6.6 3.9 1.1.2.1.4.1.6 0 .5-.2 1.1-.4 1.6-.5 1.4-.4 2.8-.6 4.2-.3.9.2 1.9.5 2.7.9.3.1.5.1.8 0 .5-.2.9-.4 1.4-.6.9-.4 1.9-.5 2.9-.4.9.1 1.8.4 2.7.7.2.1.4.1.6 0 .6-.2 1.2-.4 1.8-.7 1.3-.4 2.5-.4 3.7.2l1.8.9c.2.1.3.1.4 0 .6-.3 1.2-.7 1.8-1 1.1-.5 2.2-.7 3.3-.4.7.2 1.4.4 2 .8.4.2.7.2 1.1 0 .8-.5 1.7-.9 2.7-.8 0 .4-.3.6-.4 1 0-.1-.1-.1-.2-.1-.8.1-1.5.5-2.1 1-.3.2-.5.2-.8.1-.6-.3-1.3-.6-1.9-.8-1.1-.4-2.2-.4-3.2.2-.7.4-1.4.8-2.1 1.2-.2.1-.4.1-.6 0-.6-.4-1.3-.7-1.9-1-1-.6-2.1-.7-3.2-.3-.7.3-1.4.5-2.1.8-.2.1-.3.1-.5 0-.6-.2-1.2-.3-1.7-.5-1.3-.4-2.5-.4-3.8.1-.6.3-1.2.5-1.8.8-.2.1-.3.1-.5 0-.6-.3-1.2-.5-1.9-.7-1.4-.5-2.8-.6-4.2-.3-.9.2-1.7.5-2.6.8-.2.1-.4.2-.6.1-.4-.2-.9-.3-1.3-.5-1.7-.9-3.5-1.1-5.4-.9z" fill="#2f9acf"/><path d="m70.8 51.8c-.3.5-.6 1-1 1.4-.3-.1-.5.2-.7.3-.3.2-.5.2-.8 0-.7-.3-1.4-.6-2.1-.9-1-.4-1.9-.4-2.9.1-.8.4-1.6.9-2.4 1.4-.2.1-.3.1-.5 0-.7-.4-1.4-.7-2.1-1.1-1-.5-2-.6-3.1-.2-.7.2-1.4.5-2.1.8-.2.1-.4.1-.7 0-.7-.2-1.3-.4-2-.6-1.1-.3-2.3-.3-3.4.2-.6.3-1.3.5-1.9.8-.2.1-.4.1-.6 0-.6-.2-1.1-.5-1.7-.7-1.4-.5-2.9-.7-4.4-.3-.9.2-1.8.5-2.6.8-.3.1-.5.1-.7 0-.5-.2-.9-.4-1.4-.5-1.3-.5-2.6-.8-4-.7-.2-.3-.4-.5-.5-.9.9-.1 1.9 0 2.8.1 1 .2 2.1.5 3 .9.3.1.6.2.9 0 .7-.3 1.5-.5 2.3-.7 1.1-.3 2.3-.3 3.5-.1 1 .2 2 .6 2.9 1 .2.1.3.1.5 0 .4-.2.8-.4 1.2-.5 1.1-.5 2.3-.7 3.5-.5.9.2 1.8.4 2.7.7.2.1.4.1.5 0 .7-.3 1.4-.5 2.1-.8 1.1-.3 2.2-.3 3.3.2.7.3 1.3.6 1.9 1 .2.1.4.1.6 0 .6-.4 1.2-.7 1.9-1.1 1.2-.6 2.4-.6 3.6-.2.6.2 1.2.5 1.9.8.3.1.5.1.7 0 .6-.2 1.1-.6 1.8-.7z" fill="#2f9acf"/><path d="m31.2 54.4c-.3-.3-.5-.6-.7-.9.4 0 .7 0 1.1.1 1.2.2 2.4.6 3.5 1.1.3.1.5.1.8 0 .7-.3 1.4-.5 2.1-.7 1-.3 2.1-.4 3.1-.3 1.3.2 2.4.6 3.6 1.1.2.1.4.1.6 0 .5-.2 1.1-.5 1.6-.7 1.1-.4 2.2-.6 3.3-.3.8.2 1.6.4 2.4.6.2.1.4 0 .6 0 .6-.2 1.3-.5 1.9-.7 1.3-.4 2.5-.4 3.7.2.4.2.8.3 1.1.6.6.5 1.2.5 1.8 0 .4-.4 1-.6 1.5-.8 1.3-.6 2.6-.5 3.9 0 .6.2 1.2.5 1.7.7-.2.3-.4.5-.7.8 0-.1-.1-.1-.1-.1-.4-.2-.8-.3-1.2-.5-1.3-.6-2.5-.5-3.8.2-.6.4-1.3.7-1.9 1.1-.2.1-.4.1-.6 0-.7-.4-1.4-.8-2.2-1.1-.9-.4-1.8-.6-2.8-.3-.8.3-1.6.6-2.4.9-.2.1-.3.1-.5 0-.6-.2-1.2-.3-1.8-.5-1.3-.4-2.6-.4-3.9.2-.6.3-1.2.5-1.7.8-.2.1-.3.1-.5 0-.7-.3-1.4-.6-2-.8-1.3-.4-2.6-.6-3.9-.3-.9.2-1.8.5-2.6.8-.5.2-.9.1-1.4-.1-1.3-.5-2.4-.9-3.6-1.1z" fill="#2f9acf"/><path d="m71.8 50.1c-1-.1-1.9.3-2.7.8-.4.3-.7.3-1.1 0-.6-.3-1.3-.6-2-.8-1.2-.3-2.3-.1-3.3.4-.6.3-1.2.7-1.8 1-.2.1-.3.1-.4 0-.6-.3-1.2-.6-1.8-.9-1.2-.6-2.5-.6-3.7-.2-.6.2-1.2.4-1.8.7-.2.1-.4.1-.6 0-.9-.3-1.8-.5-2.7-.7-1-.2-2 0-2.9.4-.5.2-1 .4-1.4.6-.3.1-.5.1-.8 0-.9-.4-1.8-.7-2.7-.9-1.4-.3-2.8-.1-4.2.3-.5.2-1.1.3-1.6.5-.2.1-.4.1-.6 0-1.3-.5-2.5-1-3.9-1.1-1.1-.1-2.2-.1-3.3.1-.2-.2-.3-.4-.3-.7.4 0 .8-.1 1.2-.1 1.1-.1 2.2-.1 3.3.1s2.1.6 3.1 1c.2.1.4.1.5 0 .7-.2 1.3-.5 2-.7 1.2-.4 2.5-.5 3.7-.2 1 .2 1.9.6 2.8 1 .2.1.4.1.7 0 .5-.2.9-.4 1.4-.6 1-.4 2-.7 3.1-.4.8.2 1.7.4 2.5.7.2.1.4.1.7 0 .6-.2 1.2-.4 1.7-.7 1.2-.5 2.4-.4 3.5.2.6.3 1.2.6 1.9 1 .2.1.3.1.5 0 .7-.4 1.5-.9 2.3-1.3.9-.5 1.9-.5 2.8-.2.7.3 1.5.6 2.2.9.2.1.4.1.6 0 .5-.3 1.1-.7 1.7-.9s1.1-.1 1.7-.2c.1 0 0 .2.1.2-.1.3-.3.5-.4.7z" fill="#fefefe"/><path d="m33.5 56.8c-.5-.4-1-.9-1.3-1.4.2 0 .3 0 .5.1.8.2 1.6.5 2.4.8.2.1.3.1.5 0 .7-.3 1.5-.5 2.3-.7 1.1-.3 2.2-.4 3.3-.3 1.2.2 2.4.6 3.5 1.1.2.1.4.1.6 0 .4-.2.8-.4 1.2-.5 1.1-.5 2.2-.7 3.4-.6.9.1 1.9.4 2.8.7.2.1.4.1.6 0 .6-.2 1.2-.4 1.8-.7 1.2-.4 2.5-.5 3.7.1.7.3 1.4.7 2.1 1.1.2.1.3.1.5 0 .4-.3.8-.5 1.2-.7 1.4-.9 2.9-1.2 4.5-.6.3.1.6.2.9.3-.2.2-.5.5-.7.7-1.1-.5-2.2-.6-3.3-.2-.9.4-1.7.9-2.5 1.4-.3.2-.4.2-.7 0-.7-.4-1.4-.7-2-1.1-1-.5-2-.6-3-.3-.8.3-1.6.5-2.3.8-.2.1-.4.1-.7 0-.5-.2-1-.3-1.5-.4-1.4-.4-2.8-.5-4.2.1-.5.2-1.1.5-1.6.7-.3.1-.5.1-.8 0-.6-.3-1.2-.5-1.7-.7-1.2-.4-2.4-.6-3.7-.4-1.2.2-2.3.6-3.4 1-.3.1-.6.1-.9 0-.6 0-1-.3-1.5-.3 0-.1 0 0 0 0z" fill="#2f9acf"/><path d="m70.8 51.8c-.6.1-1.2.4-1.7.8-.3.2-.5.1-.7 0-.6-.3-1.2-.5-1.9-.8-1.2-.4-2.4-.3-3.6.2-.6.3-1.3.7-1.9 1.1-.2.1-.4.1-.6 0-.6-.4-1.3-.7-1.9-1-1.1-.5-2.2-.6-3.3-.2-.7.2-1.4.5-2.1.8-.2.1-.3.1-.5 0-.9-.3-1.8-.5-2.7-.7-1.2-.2-2.4.1-3.5.5-.4.2-.8.3-1.2.5-.2.1-.3.1-.5 0-.9-.4-1.9-.8-2.9-1-1.2-.2-2.3-.2-3.5.1-.8.2-1.5.4-2.3.7-.3.1-.6.1-.9 0-1-.4-2-.8-3-.9-.9-.2-1.8-.3-2.8-.1-.2-.2-.3-.5-.5-.7 1.9-.2 3.7 0 5.5.7.4.2.9.3 1.3.5.2.1.4 0 .6-.1.9-.3 1.7-.6 2.6-.8 1.4-.4 2.9-.2 4.2.3.6.2 1.2.5 1.9.7.2.1.3.1.5 0 .6-.3 1.2-.5 1.8-.8 1.2-.5 2.5-.5 3.8-.1.6.2 1.2.3 1.7.5.2.1.3 0 .5 0 .7-.3 1.4-.5 2.1-.8 1.1-.4 2.2-.3 3.2.3.6.3 1.3.7 1.9 1 .2.1.4.1.6 0 .7-.4 1.4-.8 2.1-1.2 1-.6 2.1-.6 3.2-.2.6.3 1.3.5 1.9.8.3.2.6.1.8-.1.7-.4 1.3-.8 2.1-1 .1 0 .2-.1.2.1-.1.4-.3.7-.5.9z" fill="#fefefe"/><path d="m68.9 54.4c-.6-.2-1.2-.5-1.7-.7-1.3-.5-2.6-.6-3.9 0-.5.2-1.1.5-1.5.8-.6.5-1.2.5-1.8 0-.3-.2-.8-.4-1.1-.6-1.2-.6-2.5-.7-3.7-.2-.6.2-1.3.4-1.9.7-.2.1-.4.1-.6 0-.8-.2-1.6-.5-2.4-.6-1.1-.2-2.2-.1-3.3.3-.6.2-1.1.4-1.6.7-.2.1-.4.1-.6 0-1.2-.5-2.3-1-3.6-1.1-1-.1-2.1 0-3.1.3-.7.2-1.4.4-2.1.7-.3.1-.5.1-.8 0-1.1-.4-2.3-.9-3.5-1.1-.4-.1-.7-.1-1.1-.1-.3-.2-.4-.5-.6-.8 1.4-.1 2.7.2 4 .7.5.2.9.3 1.4.5.3.1.5.1.7 0 .9-.3 1.7-.6 2.6-.8 1.5-.4 2.9-.2 4.4.3.6.2 1.1.4 1.7.7.2.1.4.1.6 0 .6-.3 1.2-.6 1.9-.8 1.1-.4 2.2-.5 3.4-.2.7.2 1.3.4 2 .6.2.1.4.1.7 0 .7-.3 1.4-.5 2.1-.8 1.1-.4 2.1-.3 3.1.2.7.4 1.4.7 2.1 1.1.2.1.3.1.5 0 .8-.5 1.6-1 2.4-1.4 1-.5 1.9-.4 2.9-.1.7.3 1.4.5 2.1.9.3.1.5.1.8 0 .2-.1.4-.4.7-.3-.6.4-.9.8-1.2 1.1z" fill="#fefefe"/><path d="m66.6 56.7c-.2.3-.5.5-.8.7-.7-.1-1.3.1-1.9.3-.8.4-1.6.9-2.4 1.3-.3.2-.5.2-.8 0-.7-.4-1.5-.8-2.2-1.2-.9-.4-1.8-.5-2.7-.2s-1.7.6-2.5.9c-.2.1-.3.1-.5 0-.6-.2-1.3-.4-1.9-.6-1.2-.4-2.5-.4-3.7.1-.7.3-1.4.6-2.1.9-.2.1-.3.1-.5 0-.3-.2-.7-.3-1-.4-1-.4-2-.7-3.1-.8-1.6-.1-3 .3-4.4.8-.1 0-.1.1-.1.1-.3-.2-.6-.5-1-.7.1 0 .3-.1.4-.1.8-.3 1.5-.5 2.3-.7 1.3-.4 2.7-.4 4-.1 1 .2 1.9.6 2.9 1 .1.1.3.1.4 0 .6-.3 1.2-.5 1.8-.7 1-.4 1.9-.5 3-.4 1 .1 1.9.4 2.8.7.3.1.5.1.7 0 .5-.2 1-.4 1.6-.6 1.4-.5 2.9-.6 4.3.2.5.3 1.1.5 1.6.9.3.1.5.1.7 0 .8-.5 1.5-1 2.4-1.3s1.8-.4 2.7-.1z" fill="#2f9acf"/><path d="m67.9 55.5c-.3-.1-.6-.2-.9-.3-1.6-.6-3.1-.3-4.5.6-.4.2-.8.5-1.2.7-.2.1-.3.1-.5 0-.7-.4-1.4-.7-2.1-1.1-1.2-.6-2.4-.5-3.7-.1-.6.2-1.2.4-1.8.7-.2.1-.4.1-.6 0-.9-.3-1.8-.6-2.8-.7-1.2-.2-2.3.1-3.4.6-.4.2-.8.3-1.2.5-.2.1-.4.1-.6 0-1.1-.5-2.3-.9-3.5-1.1-1.1-.1-2.2 0-3.3.3-.8.2-1.5.5-2.3.7-.2.1-.3.1-.5 0-.8-.3-1.6-.6-2.4-.8-.2 0-.3-.1-.5-.1-.4-.3-.7-.6-.9-1 1.2.2 2.4.6 3.5 1 .5.2.9.3 1.4.1.8-.4 1.7-.6 2.6-.8 1.3-.3 2.6-.2 3.9.3.7.2 1.4.5 2 .8.2.1.3.1.5 0 .6-.3 1.2-.5 1.7-.8 1.3-.6 2.6-.6 3.9-.2.6.2 1.2.3 1.8.5.2.1.4.1.5 0 .8-.3 1.6-.6 2.4-.9 1-.3 1.9-.2 2.8.3.7.4 1.5.7 2.2 1.1.2.1.4.1.6 0 .6-.4 1.3-.8 1.9-1.1 1.2-.7 2.5-.7 3.8-.2.4.2.8.3 1.2.5.1 0 .1.1.1.1.1.2 0 .3-.1.4z" fill="#fefefe"/><path d="m66.6 56.7c-.9-.3-1.8-.2-2.7.1s-1.6.8-2.4 1.3c-.2.2-.4.2-.7 0-.5-.3-1.1-.6-1.6-.9-1.4-.7-2.8-.7-4.3-.2-.5.2-1.1.4-1.6.6-.3.1-.5.1-.7 0-.9-.3-1.9-.6-2.8-.7-1-.1-2 0-3 .4-.6.2-1.2.5-1.8.7-.1.1-.3.1-.4 0-.9-.4-1.9-.8-2.9-1-1.4-.3-2.7-.3-4 .1-.8.2-1.6.5-2.3.7-.1 0-.3.1-.4.1-.5-.5-1-.8-1.5-1.3.5 0 .9.3 1.3.4.3.1.6.1.9 0 1.1-.4 2.2-.8 3.4-1 1.3-.2 2.5 0 3.7.4.6.2 1.2.4 1.7.7.3.1.5.1.8 0 .5-.3 1.1-.5 1.6-.7 1.4-.6 2.8-.6 4.2-.1.5.2 1 .3 1.5.4.2.1.4.1.7 0 .8-.3 1.5-.6 2.3-.8 1.1-.3 2.1-.2 3 .3.7.3 1.4.7 2 1.1.2.1.4.1.7 0 .8-.5 1.6-1 2.5-1.4 1.1-.5 2.2-.3 3.3.2-.1.3-.3.5-.5.6z" fill="#fefefe"/><path d="m37.7 59.9c-.4-.2-.7-.5-1.1-.7.3-.1.5-.1.8-.2 1.2-.3 2.5-.5 3.7-.3 1.1.2 2.2.6 3.3 1.1.2.1.4.2.6.1.4-.2.9-.4 1.3-.6 1.2-.5 2.3-.8 3.6-.5.9.2 1.8.4 2.7.7.3.1.5.1.8 0 .7-.3 1.4-.5 2.1-.8.9-.3 1.9-.3 2.8 0s1.8.8 2.7 1.3c.2.1.3.1.5 0 .5-.3 1-.6 1.5-.9s1-.5 1.5-.6c-.5.5-1.2.9-1.9 1.3-.6.4-1.3.7-2 1.1-.7-.5-1.5-.8-2.3-1.2s-1.7-.4-2.5-.1c-.9.2-1.7.6-2.5.9-.2.1-.4.1-.6 0-.7-.2-1.4-.4-2.1-.6-1.2-.3-2.4-.3-3.5.1-.7.3-1.3.5-2 .8-.3.1-.5.1-.7 0-.6-.3-1.2-.5-1.8-.7-1.3-.5-2.5-.7-3.9-.4-.3-.1-.7-.1-1 .2z" fill="#2f9acf"/><path d="m64.5 58.4c-.6.1-1 .3-1.5.6s-1 .6-1.5.9c-.2.1-.3.1-.5 0-.9-.5-1.7-.9-2.7-1.3-1-.3-1.9-.3-2.8 0-.7.2-1.4.5-2.1.8-.3.1-.5.1-.8 0-.9-.3-1.8-.5-2.7-.7-1.3-.2-2.4.1-3.6.5-.4.2-.9.4-1.3.6-.2.1-.4 0-.6-.1-1.1-.4-2.1-.9-3.3-1.1-1.3-.2-2.5-.1-3.7.3-.3.1-.5.1-.8.2-.2-.1-.4-.2-.6-.4 0-.1 0-.1.1-.1 1.4-.5 2.9-1 4.4-.8 1.1.1 2.1.4 3.1.8.3.1.7.3 1 .4.2.1.3.1.5 0 .7-.3 1.4-.6 2.1-.9 1.2-.5 2.5-.4 3.7-.1.6.2 1.3.4 1.9.6.2.1.3 0 .5 0 .8-.3 1.7-.6 2.5-.9.9-.3 1.8-.2 2.7.2.8.4 1.5.7 2.2 1.2.3.2.5.2.8 0 .8-.5 1.5-1 2.4-1.3.6-.3 1.2-.4 1.9-.3-.4.3-.8.7-1.3.9z" fill="#fefefe"/><path d="m40.4 61.2c-.6-.3-1.2-.5-1.7-.9.7-.2 1.3-.1 2 0 1.3.2 2.6.7 3.8 1.2.2.1.4.1.6 0 .6-.3 1.2-.6 1.8-.8.9-.3 1.9-.5 2.8-.4 1.1.1 2.1.5 3.1.8h.4c.6-.2 1.2-.4 1.8-.6.9-.3 1.8-.5 2.7-.4.8.2 1.6.5 2.3.9-.3.3-.7.3-1 .5-.7-.4-1.5-.7-2.3-.6-1.2.2-2.2.7-3.3 1.1-.2 0-.4.1-.5 0-.3-.1-.7-.2-1-.3-.8-.2-1.7-.5-2.6-.6-1.1-.1-2.1.3-3 .7-.5.2-1 .4-1.5.7-.1 0-.2 0-.2-.1v-.1c-.9-.4-1.8-.8-2.7-1-.6 0-1-.1-1.5-.1z" fill="#2f9acf"/><path d="m74.7 36.3c-1 .6-1.9 1.3-2.9 1.9-.7.5-1.4.9-2.2 1.4-.4-.5-.7-1-1-1.5-.1-.1 0-.3.1-.4.6-.3 1-.9 1.5-1.3 1.1-1 2.1-2 3.2-3 .3-.3.5-.5.8-.8 0 0 0 0 .1.1.2 1.1.4 2.1.5 3.2-.1.2 0 .3-.1.4z" fill="#fefefe"/><path d="m44.8 62.6c.5-.3 1-.5 1.5-.7 1-.4 1.9-.8 3-.7.9.1 1.7.3 2.6.6.3.1.7.2 1 .3.2.1.3 0 .5-.1 1.1-.4 2.1-.9 3.3-1.1.8-.1 1.6.1 2.3.6-4.7 1.8-9.4 2.1-14.2 1.1z" fill="#fefefe"/><path d="m25.6 33.8 1.9 1.9 2.8 2.8c.5.5.4.4.1.9-.2.4-.5.8-.7 1.2-1.5-.9-3-1.9-4.5-2.8-.1-.4 0-.8 0-1.3.1-.8.2-1.7.4-2.7z" fill="#fefefe"/><path d="m60 61c-.7-.5-1.5-.8-2.3-.9-1-.2-1.9.1-2.7.4-.6.2-1.2.4-1.8.6-.2.1-.3.1-.4 0-1-.3-2.1-.6-3.1-.8-1-.1-1.9 0-2.8.4-.6.2-1.2.5-1.8.8-.2.1-.4.1-.6 0-1.2-.5-2.5-1-3.8-1.2-.7-.1-1.3-.1-2 0-.4-.1-.6-.3-1-.5.3-.2.7-.2 1-.3 1.3-.2 2.6 0 3.9.4.6.2 1.2.5 1.8.7.3.1.5.1.7 0 .6-.3 1.3-.6 2-.8 1.2-.5 2.3-.5 3.5-.1l2.1.6c.2.1.4.1.6 0 .8-.3 1.7-.6 2.5-.9.9-.2 1.7-.2 2.5.1s1.6.7 2.3 1.2c-.1.1-.3.3-.6.3z" fill="#fefefe"/><path d="m74.6 41c-.6.2-1.2.5-1.7.7s-1.1.4-1.7.6c-.1 0-.2 0-.3-.1-.3-.6-.6-1.2-.9-1.8 1-.6 1.9-1.3 2.9-1.9.6-.4 1.1-.7 1.7-1.1.1 0 .1-.2.2 0 0 1.1 0 2.1-.1 3.2 0 .1.1.3-.1.4z" fill="#fefefe"/><path d="m25.2 38.9c1.1.7 2.3 1.4 3.4 2.2.8.5.7.3.3 1.2-.1.3-.2.5-.3.8s-.2.3-.5.3c-.8-.2-1.6-.4-2.5-.6-.2 0-.2-.2-.2-.3-.2-1.1-.2-2.2-.3-3.3.1-.3.1-.3.1-.3z" fill="#fefefe"/><path d="m72.8 48.1c-.2-.8-.4-1.6-.5-2.3-.2-.9-.6-1.7-.9-2.7 1.1-.4 2.1-.8 3.2-1.2 0 .7-.2 1.4-.4 2.2-.3 1.2-.7 2.4-1.1 3.5-.1.2-.2.3-.3.5z" fill="#fefefe"/><path d="m25.9 43.5c.6.2 1.2.3 1.9.5.1 0 .3.1.5.1 0 .3-.1.5-.2.7-.3 1-.5 2-.7 3 0 .1 0 .2-.1.3-.6-1.4-1.1-2.8-1.4-4.3-.1 0-.3-.2 0-.3z" fill="#fefefe"/><path d="m40.4 61.2c.5 0 .9.1 1.3.2.9.3 1.8.6 2.7 1 0 0 .1 0 0 .1-.5-.1-1.1-.3-1.6-.4-.7-.2-1.6-.5-2.4-.9z" fill="#fefefe"/><path d="m25.2 38.9v.1c-.1-.3-.1-.7 0-1z" fill="#560f39"/><path d="m26.9 60.7c-.8-.7-.8-1.1 0-1.8s1.1-.7 1.8.2c-.6.5-1.2 1-1.8 1.6z" fill="#fefefe"/><path d="m19.1 34c-.4 0-.7-.1-1-.2-.2 0-.5-.5-.5-.8 0-.4.3-.8.6-.9.6-.1 1.2 0 1.7.3.3.2.3.5.2.8-.1.4-.3.6-.7.7-.1.1-.2.1-.3.1z" fill="#fefefe"/><path d="m80.8 27.3c0 .3-.2.6-.4.8-.4.2-.7.4-1.2.4-.4 0-.7-.2-.9-.5-.2-.4-.1-.8.2-1 .4-.3.8-.5 1.3-.5.6-.1 1 .3 1 .8z" fill="#fefefe"/><path d="m22 54.1c.3-.4.7-.7 1-1.1.2.3.3.5.5.8-.5.1-1 .2-1.5.3 0 .1 0 .1 0 0z" fill="#fefefe"/><path d="m45.3 8.4c-.3.1-.6.1-1 .2.1-.5.1-1.1.2-1.7.3.6.5 1 .8 1.5z" fill="#fefefe"/><path d="m55.7 7c0 .1.1.1.1.1.1.5.1 1 .2 1.5-.3 0-.6-.1-1-.1.2-.5.5-1 .7-1.5z" fill="#fefefe"/><path d="m46.1 84.9c0-.9 0-1.8 0-2.7h.7c.5.1.7.3.8 1v1c-.1.5-.2.6-.8.7-.2 0-.4 0-.7 0z" fill="#fefefe"/><path d="m59.5 84.5c0 .4-.3.8-.6.8-.4 0-.7-.3-.7-.7s.3-.8.6-.8c.4 0 .7.2.7.7z" fill="#fefefe"/><path d="m58.8 81.8c.3 0 .6.3.6.6s-.2.6-.6.6c-.3 0-.6-.3-.6-.6s.3-.6.6-.6z" fill="#fefefe"/><path d="m62.8 84.5c0-.5.3-.7.7-.7s.7.4.6.8c0 .4-.3.8-.7.7-.3 0-.6-.3-.6-.8z" fill="#fefefe"/><path d="m63.4 83c-.3 0-.6-.2-.6-.6 0-.3.3-.6.6-.6s.6.3.6.6-.2.6-.6.6z" fill="#fefefe"/><path d="m67.6 84.5c0-.7.4-1 .9-.8.4.2.6.8.3 1.3-.1.3-.5.4-.8.3-.4-.2-.5-.5-.4-.8z" fill="#fefefe"/><path d="m28.4 47c0-.6.2-1.1.4-1.7.9-3.1 2.5-5.9 4.7-8.3 2.3-2.5 5.1-4.4 8.3-5.7 3.6-1.4 7.3-1.9 11.2-1.4 4.3.5 8.2 2.3 11.5 5.1 2.5 2.1 4.4 4.7 5.8 7.6.6 1.3 1 2.6 1.4 3.9 0 .1.1.2 0 .2-.2 0-.3 0-.5 0-1 0-1.9.4-2.8 1-.2.1-.3.1-.5 0-.7-.3-1.5-.7-2.2-.9-.8-.2-1.6-.3-2.4 0-.2.1-.2-.1-.3-.2-.5-.6-1.1-1.1-1.6-1.6-.6-.5-1.4-.8-2.2-.7-.2 0-.3.1-.2.4.1.2.3.4.4.6.1.1.2.2.4.2.3 0 .6-.1.9 0 .8.3 1.4.9 1.9 1.5-.7.3-1.3.7-2 1.1-.1.1-.2.1-.4 0-.6-.3-1.1-.6-1.7-.9-1-.5-2.1-.7-3.3-.4-.7.2-1.5.5-2.2.8-.2.1-.4.1-.6 0-.7-.2-1.4-.4-2.1-.6-.9-.2-1.8-.2-2.7 0-.8.2-1.5.5-2.3.9-.2.1-.3.1-.5 0-.6-.2-1.2-.5-1.8-.7-1.4-.5-2.8-.6-4.3-.2-.8.2-1.7.5-2.5.8-.2.1-.3.1-.5 0-.4-.1-.7-.3-1.1-.4-1.9-.6-4-.7-6.2-.4zm18.9-11.1c-1.9 0-3.9 0-5.8 0 0 .3.2.5.3.7s.2.3.5.3h1.3c.2 0 .3.1.3.3v1.9c0 .4-.1.5-.5.6-.1 0-.2.1-.2.1-.7.3-2 0-2.5-.7.1-.1.2-.1.2-.2.4-.4.6-.9.3-1.4-.6-1.3-2-2.3-3.7-1.4-.6.3-.6.3-.3.8.2.4.3.4.7.2s.7-.4 1.1-.5c.5-.2 1 0 1.2.4.3.8-.2 1.7-1 1.7-.3 0-.7.1-1 .1-.2 0-.4.1-.3.4.1.5.7.9 1.3.7.2-.1.4-.1.5-.2.6-.2 1 0 1.1.6s0 1.1-.5 1.5-1.1.5-1.8.2c-.8-.4-1.2-1-1.6-1.8-.1-.2-.2-.4-.3-.5-.2.2-.6.2-.4.6.3.5.6 1.1 1 1.6.8.9 1.7 1.5 3 1.3.9-.2 1.5-.9 1.6-1.9 0-.2 0-.4 0-.7h.2c.4.2.9.2 1.4.2.4-.1.4-.1.4.3v2.4c0 .1 0 .3.1.4.3.2.6.4.9.5.1-.3.1-.5.1-.8 0-2.1 0-4.3 0-6.4 0-.3.1-.4.4-.4h1.2c.6 0 .6 0 .6.6v6.1c0 .1 0 .3.1.4.3.2.6.4 1 .5 0-.2 0-.4 0-.5 0-2.2 0-4.4 0-6.7 0-.3.1-.4.4-.4h1c.2 0 .3 0 .3.2.1.2.3.3.5.2.5-.2.9-.3 1.4-.1.3.1.6.3.6.6.1.3-.1.6-.4.7-.4.3-.8.4-1.3.4-.1 0-.3 0-.3.2v.8c.4 0 .9 0 1.3.1 1.1.3 1.4 1 1 2-.1.2-.3.5-.6.4-.3 0-.5-.1-.6-.4-.3-.6-.4-.6-1-.6-.3 0-.6.2-.7.5-.1.4-.1.7.2 1 .3.2.6.4.9.5.7.4 1.1.9 1.3 1.7.1.5.1.5.6.4.3-.1.7-.2.7-.6.1-.3-.2-.5-.5-.7s-.4-.5-.1-.8c1-1.1 1.5-2.3.8-3.7-.2-.4-.1-.7 0-1 .1-.5.1-1 0-1.5-.1-.3 0-.4.3-.3h1.1c.3 0 .4.1.4.4v2c0 .6 0 .6-.6.7-.3 0-.5.3-.3.6.4.6.9 1.1 1.5 1.5.2.2.5.1.5-.2 0-.2 0-.3 0-.5 0-.3.1-.4.3-.4h2.2c.3 0 .3.1.3.3v2c0 .5.5 1 1.1 1 0-.1 0-.3 0-.4 0-2.2 0-4.5 0-6.7 0-.3.1-.4.4-.4h1.6c0-.3-.2-.5-.3-.7s-.2-.3-.5-.3c-2.8 0-5.5 0-8.3 0-.1 0-.3 0-.4 0 0 .2.1.3.2.5-1.3-.9-2.5-.6-3.7.1-.1-.7-.6-.7-1.1-.6-.3 0-.5-.1-.7-.3-.7-.9-1.3-1.8-2.1-2.6-.5-.6-1.1-.8-1.9-.7-.3.1-.4.2-.3.5s.3.5.4.8.4.4.7.2c.4-.2.8-.1 1.1.2.5.4.9.9 1.3 1.4.2.4.4.5.4.7z" fill="#fefefe"/><path d="m72 49.2c-.6.1-1.1 0-1.7.2s-1.1.6-1.7.9c-.2.1-.4.2-.6 0-.7-.3-1.4-.7-2.2-.9-1-.3-1.9-.3-2.8.2-.8.4-1.5.8-2.3 1.3-.2.1-.3.1-.5 0-.6-.3-1.3-.6-1.9-1-1.2-.6-2.3-.7-3.5-.2-.6.2-1.2.4-1.7.7-.2.1-.4.1-.7 0-.8-.3-1.7-.5-2.5-.7-1.1-.2-2.1 0-3.1.4-.5.2-1 .4-1.4.6-.2.1-.4.1-.7 0-.9-.4-1.8-.8-2.8-1-1.3-.3-2.5-.2-3.7.2-.7.2-1.4.4-2 .7-.2.1-.3.1-.5 0-1-.4-2-.8-3.1-1s-2.2-.3-3.3-.1c-.4 0-.8.1-1.2.1-.1-.3 0-.6.1-.9.3-.1.7-.1 1-.1.9-.1 1.7-.1 2.6 0 1.3.2 2.6.6 3.8 1.1.2.1.4.1.7 0 .4-.2.9-.3 1.3-.5 1.3-.4 2.7-.7 4.1-.4 1.1.2 2.2.6 3.2 1 .1.1.3.1.4 0 .5-.2 1-.4 1.5-.6 1-.4 2-.6 3-.4.9.1 1.8.4 2.7.7h.4c.6-.2 1.2-.4 1.7-.6 1.2-.4 2.4-.5 3.6.1l1.8.9c.2.1.3.1.5 0 .5-.3 1-.6 1.5-.9 1.2-.7 2.5-.9 3.8-.4.6.2 1.3.5 1.9.8.2.1.4.2.6 0 1-.7 2.2-1 3.4-1 .3.2.3.5.3.8z" fill="#2f9acf"/><path d="m71.9 48.3c-1.2 0-2.4.3-3.4 1-.2.1-.4.1-.6 0-.6-.3-1.2-.5-1.9-.8-1.3-.5-2.6-.3-3.8.4-.5.3-1 .6-1.5.9-.2.1-.3.1-.5 0-.6-.3-1.2-.6-1.8-.9-1.2-.6-2.4-.5-3.6-.1-.6.2-1.2.4-1.7.6-.1.1-.3.1-.4 0-.9-.3-1.8-.5-2.7-.7-1.1-.2-2.1 0-3 .4-.5.2-1 .4-1.5.6-.1.1-.3.1-.4 0-1-.4-2.1-.9-3.2-1-1.4-.2-2.8 0-4.1.4-.4.1-.9.3-1.3.5-.2.1-.5.1-.7 0-1.2-.5-2.5-.9-3.8-1.1-.9-.1-1.7-.1-2.6 0-.3 0-.7 0-1 .1-.1-.3 0-.5.1-.8.2 0 .4 0 .6-.1 1-.1 2-.2 3-.1 1.4.1 2.6.6 3.9 1.1.3.1.5.1.8 0 .7-.2 1.4-.5 2.1-.7 1.2-.4 2.5-.4 3.7-.1.9.2 1.8.6 2.6 1 .2.1.4.1.6 0 .6-.3 1.3-.6 1.9-.8.8-.3 1.5-.4 2.4-.3s1.7.4 2.5.7c.3.1.6.1.9 0 .6-.3 1.2-.4 1.8-.7 1.1-.4 2.1-.3 3.1.2.6.3 1.3.6 2 1 .3.2.4.1.7 0 .8-.5 1.6-1 2.4-1.3.2.1.4.1.5-.2 0-.1.1-.1.2-.1.6-.1 1.1 0 1.7.1.8.2 1.6.6 2.3 1 .2.1.4.1.6 0 .4-.3.9-.6 1.4-.8.6-.3 1.3-.2 1.9-.3-.2.4-.2.7-.2.9z" fill="#fefefe"/><path d="m63.2 47.8c-.8.4-1.6.9-2.4 1.3-.2.1-.4.2-.7 0-.6-.4-1.3-.7-2-1-1-.5-2-.6-3.1-.2-.6.2-1.2.4-1.8.7-.3.1-.6.1-.9 0-.8-.3-1.7-.5-2.5-.7-.8-.1-1.6 0-2.4.3-.7.2-1.3.5-1.9.8-.2.1-.4.1-.6 0-.9-.4-1.7-.7-2.6-1-1.2-.3-2.5-.3-3.7.1-.7.2-1.4.4-2.1.7-.3.1-.5.1-.8 0-1.3-.5-2.5-1-3.9-1.1-1-.1-2 0-3 .1-.2 0-.4 0-.6.1 0-.3 0-.6.1-.9 2.2-.4 4.3-.2 6.4.6.4.1.7.3 1.1.4.2.1.3 0 .5 0 .8-.3 1.6-.6 2.5-.8 1.5-.4 2.9-.3 4.3.2.6.2 1.2.4 1.8.7.2.1.3.1.5 0 .7-.3 1.5-.7 2.3-.9.9-.3 1.8-.2 2.7 0 .7.2 1.4.3 2.1.6.2.1.4 0 .6 0 .7-.3 1.4-.5 2.2-.8 1.1-.3 2.2-.1 3.3.4.6.3 1.1.6 1.7.9.1.1.2.1.4 0 .7-.4 1.3-.8 2-1.1.1.1.4.3.5.6z" fill="#2f9acf"/><path d="m71.7 47.6c-.6.1-1.3 0-1.9.3-.5.2-1 .5-1.4.8-.2.1-.4.1-.6 0-.8-.4-1.5-.7-2.3-1-.6-.2-1.1-.2-1.7-.1-.3-.1-.4-.4-.6-.7.8-.3 1.6-.2 2.4 0s1.5.5 2.2.9c.2.1.3.1.5 0 .9-.5 1.8-1 2.8-1h.5c.1.2.2.5.1.8z" fill="#2f9acf"/><path d="m47.3 35.9c0-.2-.2-.3-.2-.5-.4-.5-.8-1-1.3-1.4-.3-.3-.7-.4-1.1-.2-.3.1-.5.1-.7-.2-.1-.3-.3-.5-.4-.8s0-.4.3-.5c.8-.1 1.4.2 1.9.7.8.8 1.4 1.7 2.1 2.6.2.2.4.3.7.3.5 0 1-.1 1.1.6 1.2-.7 2.5-1 3.7-.1 0-.2-.2-.3-.2-.5h.4 8.3c.2 0 .4.1.5.3s.3.4.3.7c-.6 0-1.1 0-1.6 0-.3 0-.4.1-.4.4v6.7.4c-.6 0-1.1-.5-1.1-1 0-.7 0-1.3 0-2 0-.2-.1-.3-.3-.3-.7 0-1.5 0-2.2 0-.3 0-.4.1-.3.4v.5c-.1.3-.3.4-.5.2-.6-.4-1.1-.9-1.5-1.5-.2-.3 0-.6.3-.6.6 0 .6 0 .6-.7s0-1.4 0-2c0-.3-.1-.4-.4-.4-.4 0-.7 0-1.1 0-.3 0-.4.1-.3.3.2.5.2 1 0 1.5-.1.4-.1.7 0 1 .6 1.4.2 2.6-.8 3.7-.3.3-.2.6.1.8s.5.3.5.7c-.1.4-.4.5-.7.6-.5.1-.5.1-.6-.4-.2-.8-.6-1.3-1.3-1.7-.3-.2-.6-.3-.9-.5-.3-.3-.3-.7-.2-1s.4-.5.7-.5c.7-.1.8 0 1 .6.1.3.4.4.6.4.3 0 .5-.2.6-.4.4-1 .1-1.7-1-2-.4-.1-.9-.1-1.3-.1-.1-.3 0-.5 0-.8 0-.2.2-.2.3-.2.5 0 .9-.2 1.3-.4.3-.2.5-.4.4-.7s-.3-.5-.6-.6c-.5-.2-1 0-1.4.1-.2.1-.4.1-.5-.2-.1-.1-.1-.2-.3-.2-.3.1-.7 0-1 0s-.4.1-.4.4v6.7.5c-.4-.1-.7-.3-1-.5-.1-.1-.1-.2-.1-.4 0-2 0-4 0-6.1 0-.6 0-.6-.6-.6-.4 0-.8 0-1.2 0-.3 0-.4.1-.4.4v6.4c0 .2 0 .5-.1.8-.3-.1-.6-.3-.9-.5-.1-.1-.1-.2-.1-.4 0-.8 0-1.6 0-2.4 0-.4 0-.4-.4-.3-.5.1-1 .1-1.4-.2-.1 0-.1 0-.2 0v.7c0 .9-.6 1.7-1.6 1.9-1.3.3-2.2-.3-3-1.3-.4-.5-.7-1-1-1.6-.2-.4.2-.4.4-.6.2.1.2.4.3.5.4.7.8 1.4 1.6 1.8.6.3 1.2.2 1.8-.2.5-.4.6-.9.5-1.5s-.6-.8-1.1-.6c-.2.1-.4.1-.5.2-.5.2-1.1-.1-1.3-.7-.1-.2.1-.3.3-.4.3 0 .7-.1 1-.1.8 0 1.3-1 1-1.7-.2-.4-.7-.5-1.2-.4-.4.1-.8.3-1.1.5-.4.2-.5.2-.7-.2-.3-.6-.3-.6.3-.8 1.7-.9 3.2.2 3.7 1.4.2.5.1 1-.3 1.4-.1.1-.2.1-.2.2.5.6 1.7 1 2.5.7.1 0 .2-.1.2-.1.4-.1.5-.2.5-.6 0-.6 0-1.3 0-1.9 0-.2-.1-.3-.3-.3-.4 0-.9 0-1.3 0-.2 0-.4-.1-.5-.3s-.3-.4-.3-.7c1.7-.2 3.7-.2 5.6-.2zm9.4 2.6v1.3c0 .2.1.3.3.3h2.3c.2 0 .3-.1.3-.3 0-.9 0-1.7 0-2.6 0-.2-.1-.3-.3-.3-.8 0-1.5 0-2.3 0-.2 0-.3.1-.3.3z" fill="#e68e32"/><path d="m63.2 46.9c.2.3.3.6.6.7-.1 0-.1 0-.2.1-.1.2-.3.2-.5.2-.1-.3-.3-.5-.6-.7-.5-.6-1.1-1.2-1.9-1.5-.3-.1-.6-.1-.9 0-.2 0-.3 0-.4-.2-.2-.2-.3-.4-.4-.6s0-.3.2-.4c.8-.1 1.6.1 2.2.7.6.5 1.1 1 1.6 1.6.1 0 .2.1.3.1z" fill="#e68e32"/><path d="m56.7 38.5c0-.4 0-.8 0-1.3 0-.2 0-.3.3-.3h2.3c.2 0 .3.1.3.3v2.6c0 .2-.1.3-.3.3-.8 0-1.5 0-2.3 0-.2 0-.3-.1-.3-.3 0-.5 0-.9 0-1.3z" fill="#fefefe"/></svg>