<?xml version="1.0"?>
<svg xmlns="http://www.w3.org/2000/svg" xmlns:xlink="http://www.w3.org/1999/xlink" viewBox="0 0 1000 1000" width="300" height="300" 
style="enable-background:new 0 0 1000 1000;" xml:space="preserve">
<style type="text/css">
	.st0{fill:#FCC679;}
	.st1{fill:#010202;}
	.st2{fill:#B65639;}
	.st3{fill:#B3A68D;}
	.st4{fill:#E94B32;}
	.st5{opacity:0.99;}
	.st6{fill:#FFFFFF;}
	.st7{fill:#FBEAD4;}
	.st8{fill:#A01C16;}
	.st9{fill:#663D0E;}
</style>
<switch>
	<g>
		<g>
			<g id="XMLID_44_">
				<rect x="182.3" y="882.5" class="st0" width="637.6" height="75.5"/>
				<path class="st1" d="M821.7,960l-1.8,0l-639.4-0.6l0.1-79l1.8,0l639.4,0.6L821.7,960z M184.1,956l634.1,0.6l0.1-72L184.1,884
					L184.1,956z"/>
			</g>
			<g id="Ribbon">
				<g id="XMLID_20_">
					<path class="st0" d="M747.4,703.7c-1.4,16.7,6,31,16.5,31.8c10.5,0.9,20.1-12,21.5-28.7c1.4-16.7-2.5-35.2-13.6-34.2
						C759.4,673.8,748.8,687,747.4,703.7z"/>
					<path class="st1" d="M765,737.4c-0.4,0-0.8,0-1.2,0c-11.5-0.9-19.6-16.1-18.1-33.7l0,0c1.4-17.4,12.6-31.5,26-32.7
						c3.2-0.3,6.1,0.8,8.5,3.1c6.7,6.6,8,21.9,7.1,33c-0.7,8.4-3.4,16.2-7.7,21.8C775.4,734.4,770.3,737.4,765,737.4z M749.1,703.9
						c-1.3,15.7,5.4,29.1,14.9,29.9c4.4,0.4,9-2.1,12.6-7.1c3.9-5.2,6.4-12.3,7-20c1.1-13.4-1.3-25.5-6-30.2
						c-1.7-1.6-3.5-2.3-5.7-2.1C760.3,675.5,750.4,688.2,749.1,703.9L749.1,703.9z"/>
				</g>
				<g id="XMLID_19_">
					<path class="st0" d="M258,700.7c4.2,13.1-2.8,32.1-8.7,34c-5.9,1.9-22.3-10.9-26.5-24c-4.2-13.1,6-32,11.8-33.8
						C240.5,675,253.8,687.5,258,700.7z"/>
					<path class="st1" d="M248.1,736.6c-7.9,0-22.9-12.7-27-25.4c-4.5-14.1,6.2-33.9,13-36c7.2-2.3,21.3,11.5,25.5,25
						c4.2,13.3-2.5,33.9-9.8,36.2C249.3,736.5,248.7,736.6,248.1,736.6z M236,678.4c-0.3,0-0.6,0-0.8,0.1
						c-4.7,1.5-14.6,19.3-10.7,31.6c4,12.6,19.9,24.2,24.3,22.9c4.6-1.5,11.5-19.3,7.5-31.8l0,0C252.5,689,241.1,678.4,236,678.4z"
						/>
				</g>
				<g id="XMLID_2_">
					<g id="Center_Ribbon">
						<path class="st0" d="M802.5,770.4c-7,8-2.3,2.8-11,11.7C721.4,853,620.7,878,507.7,879.5c-108.9,1.4-215.5-22-290.1-98.2
							l-11.9-13.9c-12.4-18.6-11-26.6-1.4-39.3c0.1-0.1,0.1-0.1,0.2-0.2l20.2-29.3c61.7,67,162.7,111.1,274.2,112.1
							c121.8,1.1,228.9-45.7,281.3-115.4l22.7,32.5C813.7,743.2,811.1,760.6,802.5,770.4z"/>
						<path class="st1" d="M498.6,881.3c-55.5,0-105.7-6.8-149.3-20.1c-53-16.3-97.8-42.7-133-78.6l-0.1-0.1l-12.1-14
							c-13.1-19.7-11.2-28.3-1.3-41.4l0.2-0.2l21.4-31l1.5,1.6c63.4,68.9,165.4,110.6,272.9,111.5c118.7,1,225.9-42.9,279.8-114.7
							l1.5-1.9l24.1,34.5c11.9,16.7,8.1,34.9-0.5,44.7l0,0c-1.2,1.4-2.1,2.4-2.7,3.1c-1.9,2.1-1.9,2.2-3.3,3.5
							c-0.9,0.8-2.3,2.2-5.1,5.1c-63.5,64.2-156.7,96.2-284.9,97.9C504.7,881.3,501.7,881.3,498.6,881.3z M218.9,780.1
							c63.6,64.8,157.6,97.7,279.7,97.7c3,0,6,0,9.1-0.1c127.3-1.7,219.7-33.4,282.5-96.9c2.9-2.9,4.3-4.3,5.2-5.2
							c1.3-1.2,1.3-1.2,3.1-3.3c0.6-0.7,1.5-1.7,2.7-3.1l0,0c7.7-8.8,11.1-25.2,0.2-40.4L780,698.3c-26.3,34.1-65.6,62.7-113.9,82.9
							c-50.3,21-108.1,31.8-167.4,31.3c-107.6-0.9-209.8-42.4-274-111l-19.2,27.8c-9.3,12.3-10.4,19.4,1.4,37.2L218.9,780.1z"/>
					</g>
					<g id="Left_Ribbon">
						<path class="st0" d="M245,681.3l-44.2,51.9c-24.2-23.2-54.6-56.3-75.9-87.1C91.3,597.6,64.8,541,56,480.9
							c-11.8-81-5.1-158.9,10.9-221.1l31.9,33.4l43.8-20.1c-14.4,40.6-22.3,77-22.3,122.8c0,14.8,0.8,29.4,2.4,43.7
							c6,54.2,23.1,104.8,48.7,149.4C190.4,622,217.6,655.9,245,681.3z"/>
						<path class="st1" d="M201,735.8l-1.3-1.3c-29.1-27.9-57.6-60.5-76.2-87.3c-37.3-53.8-61.2-111.2-69.2-166
							c-10.8-73.7-6.9-152.5,10.9-221.8l0.8-3.1l33.2,34.8l46.4-21.3l-1.4,3.9C128.4,318,122,353.4,122,395.9
							c0,14.4,0.8,29.1,2.4,43.5c5.9,53.1,22.2,103.1,48.5,148.7c18.8,32.7,45.6,66.2,73.3,91.9l1.2,1.1L201,735.8z M67.8,263.3
							c-17,68.1-20.6,145.2-10.1,217.4c7.9,54.2,31.7,111.1,68.6,164.5c18.1,26.2,45.8,58.1,74.4,85.5l41.9-49.2
							c-27.6-25.8-54-59.1-72.8-91.6c-26.5-46-43-96.5-49-150.1c-1.6-14.6-2.4-29.3-2.4-43.9c0-41.6,6.1-76.5,21-119.5l-41.2,18.9
							L67.8,263.3z"/>
					</g>
					<g id="Right_Ribbon">
						<path class="st0" d="M950.3,472c-7.1,50.2-24.7,97.8-48.1,140.7c0,0,0,0.1-0.1,0.1c-23.4,42.8-64.8,88.7-95.5,119.8l-29-33
							l-19.2-20.3c22.5-20.3,43.1-43.8,60.8-69.9c42.7-62.8,68.7-140.4,64.8-222.9c-0.4-8.9-1-17.7-1.9-26.3
							c-3.5-36.5-10.8-63.7-23.3-97l49.3,28.8l28.6-32.2C957.5,324.9,962,390,950.3,472z"/>
						<path class="st1" d="M806.6,735.2l-30.2-34.4L756,679.3l1.3-1.2c22.7-20.5,43.1-43.9,60.5-69.6
							c45.9-67.5,68.2-144.2,64.5-221.9c-0.4-8.8-1-17.6-1.9-26.2c-3.7-38.5-11.9-66.4-23.2-96.6l-1.7-4.6l52.3,30.5l29.7-33.5
							l0.9,2.9c21,66.2,25.2,131.9,13.6,213v0c-6.7,47.4-23,94.9-48.3,141.3l-0.1,0.2c-23.2,42.5-64.9,88.8-95.7,120.1L806.6,735.2z
							 M761,679.4l18,19l27.8,31.6c43.4-44.2,75.8-85,93.8-118l0.1-0.2c25.1-46,41.2-93.1,47.8-140v0
							c11.4-79.4,7.5-143.8-12.5-208.5l-27.5,31l-46.4-27c10.5,28.7,18.2,56,21.7,92.9c0.8,8.6,1.5,17.5,1.9,26.4
							c1.9,40.1-3.1,80.2-15,119.4c-11.1,36.8-28,72-50.1,104.6C803.4,635.9,783.4,659.1,761,679.4z"/>
					</g>
				</g>
			</g>
			<g>
				<path class="st2" d="M842.5,392.5c-0.5-4.8-1.7-14.3-4.3-26c-1.9-8.6-4-16.1-6-22.3c-21.5,3.2-43,6.4-64.5,9.6
					c-8.3-32.2-22.1-62.1-40.3-88.6c17.2-12.3,34.4-24.7,51.6-37c-9.7-13.5-21.8-28.4-36.6-43.2c-8.6-8.6-18.3-17.4-29.3-26.1
					c-4.1-3.2-8.1-6.3-12-9.1c-13,16-26.1,32-39.1,48c-29.8-21.8-64-37.6-101.1-46c6.1-19.2,12.2-38.3,18.4-57.5
					c-15.8-4.3-35.6-8.3-58.7-9.8c-25.6-1.6-47.8,0.3-65.2,3c3.4,19.9,6.7,39.8,10.1,59.7c-37.7,4.8-72.9,17.1-104.3,35.5
					c-9.7-18.1-19.4-36.2-29.2-54.3c-12.9,6.7-28.1,15.9-43.9,28.5c-15.8,12.5-28.2,25.1-37.6,36c15.4,14,30.7,27.9,46.1,41.9
					c-24.8,26.9-44.4,58.7-57.3,93.8c-19.1-8.2-38.3-16.3-57.4-24.5c-6,16.1-12,35.9-16,58.8c-4.4,24.7-5.5,46.7-5.3,64.7
					c20.5-1.3,40.9-2.6,61.4-3.9c-0.1,12.9,0.6,28,3,44.6c3,20.2,7.8,37.6,12.7,51.7c-18.5,9.2-37.1,18.4-55.6,27.5
					c4.4,13.2,11.1,29.4,21.5,46.8c9.7,16.2,20,29.2,29,39c15.4-12.3,30.8-24.5,46.2-36.7c20.6,27.2,46.1,50.4,75,68.4
					c-12.8,15.7-25.7,31.4-38.5,47c13.4,9.5,31.2,20.5,53.5,29.9c22.3,9.4,42.5,14.5,58.7,17.4c4.2-19.8,8.3-39.6,12.5-59.4
					c14,3,31.3,5.6,51.1,6.1c20.3,0.5,38.1-1.2,52.4-3.6c1.3,20.4,2.6,40.8,4,61.2c16.1-1.3,37.4-4.7,61.1-13.3
					c19.3-6.9,35-15.4,47-23c-11.2-16.8-22.4-33.7-33.7-50.5c29.5-14.9,56.1-34.8,78.5-58.8c15.7,14.5,31.4,28.9,47.1,43.4
					c11.7-12.1,24.6-27.4,37.1-46.1c10.3-15.5,18.4-30.2,24.6-43.4c-19.2-10.2-38.4-20.4-57.6-30.5c13.3-29.4,21.8-61.5,24.3-95.2
					c22.2,0,44.5-0.1,66.7-0.1c0.7-6.5,1.4-14.6,1.5-23.8C844.1,410.6,843.4,400.4,842.5,392.5z M502.3,655.3
					c-125.4,2.2-228.4-98.9-230.1-225.8c-1.7-126.8,98.6-231.4,224-233.6c125.4-2.2,228.4,98.9,230.1,225.8
					C727.9,548.6,627.7,653.2,502.3,655.3z"/>
				<path class="st1" d="M545.8,765.6l-0.1-1.8c-1.2-18.5-2.4-37-3.6-55.5l-0.2-3.8c-16.8,2.7-33.9,3.8-50.9,3.3
					c-16.7-0.4-33.4-2.4-49.7-5.8c-4,19.2-8.1,38.5-12.1,57.7l-0.3,1.7l-1.7-0.3c-20.2-3.6-40.1-9.5-59-17.5
					c-19-8-37.1-18.1-53.9-30.1l-1.5-1.1l1.2-1.4c12.4-15.2,24.8-30.3,37.3-45.5c-28-17.7-52.5-40-72.7-66.4l-46.1,36.6l-1.1-1.2
					c-11-12.1-20.9-25.3-29.2-39.3c-8.9-14.9-16.1-30.7-21.6-47.1l-0.5-1.4l55.6-27.5c-5.6-16.4-9.8-33.4-12.3-50.6
					c-2.1-14.2-3.1-28.6-3.1-43l-61.3,3.9l0-1.8c-0.3-21.7,1.5-43.6,5.3-65c3.6-20.1,9-40,16.1-59.1l0.6-1.7l57.4,24.5
					c12.7-33.8,31.4-64.6,55.8-91.3l-46-41.9l1.1-1.3c11.4-13.2,24.2-25.4,37.8-36.3c13.8-10.9,28.6-20.5,44.2-28.7l1.5-0.8
					l29.1,54.2c31.5-18.2,65.7-29.8,101.6-34.6l-10.1-59.7l1.7-0.3c21.7-3.4,43.7-4.4,65.6-3c19.9,1.3,39.7,4.6,59,9.8l1.8,0.5
					l-0.6,1.7c-5.9,18.6-11.8,37.1-17.8,55.7c35.6,8.3,68.7,23.4,98.5,44.9c12.2-15,24.4-29.9,36.5-44.9l2.6-3.2l1.3,1
					c4.1,3,8.1,6,12.1,9.2c10.3,8.1,20.2,17,29.5,26.3c13.2,13.2,25.6,27.8,36.8,43.5l1,1.4l-1.4,1c-12.3,8.8-24.5,17.6-36.8,26.4
					l-13.4,9.6c17.9,26.4,31,55.3,39.2,86.2c21-3.1,41.9-6.3,62.9-9.4l1.5-0.2l0.5,1.4c2.4,7.4,4.4,14.9,6.1,22.5
					c1.9,8.8,3.4,17.6,4.4,26.2c1.1,10,1.6,20.1,1.5,30.2c-0.1,8-0.6,16.1-1.5,24l-0.2,1.6l-66.7,0.1c-2.6,32.2-10.6,63.3-23.6,92.7
					c18.7,9.9,37.5,19.8,56.2,29.8l1.5,0.8l-0.7,1.5c-7.1,15.1-15.5,29.8-24.7,43.6c-11,16.4-23.5,32-37.3,46.3l-1.2,1.2l-47.1-43.4
					c-22.1,23.3-47.6,42.5-76,57l33.6,50.3l-1.5,1c-14.9,9.4-30.8,17.2-47.3,23.2c-19.8,7.1-40.5,11.6-61.6,13.3L545.8,765.6z
					 M545.1,700.5l0.5,7.6c1.2,17.9,2.3,35.8,3.5,53.7c20.1-1.8,39.9-6.2,58.9-13c15.8-5.7,30.9-13,45.1-21.9l-33.8-50.6l1.8-0.9
					c29.2-14.7,55.5-34.4,78-58.4l1.2-1.3l47.1,43.4c13.1-13.8,25.1-28.8,35.7-44.6c8.9-13.2,16.8-27.2,23.8-41.6
					c-18.7-9.9-37.4-19.8-56.1-29.7l-1.5-0.8l0.7-1.5c13.5-29.9,21.7-61.7,24.1-94.6l0.1-1.6l66.8-0.1c0.8-7.3,1.2-14.7,1.3-22.1
					c0.1-9.9-0.4-19.9-1.5-29.8v0c-0.9-8.5-2.4-17.2-4.3-25.8c-1.5-7-3.4-13.9-5.5-20.7c-21,3.1-42,6.3-63,9.4l-1.6,0.2l-0.4-1.5
					c-8.1-31.6-21.6-61.2-40-88l-1-1.4l16.2-11.6c11.8-8.5,23.6-16.9,35.4-25.4c-10.9-15-22.8-29-35.4-41.6
					c-9.2-9.2-19-17.9-29.2-26c-3.5-2.8-7-5.5-10.6-8.1l-0.5,0.6c-12.5,15.4-25.1,30.8-37.6,46.1l-1,1.3l-1.3-1
					c-30.3-22.1-64.1-37.5-100.4-45.7l-1.9-0.4l0.6-1.8c5.9-18.6,11.9-37.2,17.8-55.8c-18.5-4.9-37.5-8-56.5-9.2
					c-21-1.4-42.2-0.4-63.1,2.7l10.1,59.8l-1.8,0.2c-36.7,4.6-71.6,16.5-103.7,35.3l-1.6,0.9l-29.2-54.4
					c-14.8,7.8-29,17.1-42.1,27.5c-13.1,10.4-25.3,22-36.3,34.5l46.1,41.9l-1.2,1.3c-25,27.2-44.2,58.6-56.9,93.2l-0.6,1.7
					l-57.4-24.5c-6.7,18.4-11.9,37.5-15.3,56.8c-3.7,20.6-5.5,41.6-5.3,62.5l61.4-3.9l0,1.9c-0.2,14.8,0.9,29.7,3,44.3
					c2.6,17.4,6.8,34.7,12.6,51.4l0.5,1.5l-55.6,27.6c5.3,15.7,12.4,30.8,20.8,45c7.9,13.3,17.3,25.9,27.7,37.5l46.3-36.8l1.1,1.4
					c20.6,27.2,45.7,50.1,74.5,68l1.7,1.1l-1.3,1.5c-12.4,15.2-24.9,30.4-37.3,45.6c16.1,11.3,33.5,21,51.7,28.6
					c18.2,7.7,37.2,13.4,56.6,17c4-19.2,8.1-38.5,12.1-57.7l0.4-1.7l1.7,0.4c16.7,3.6,33.7,5.6,50.8,6.1c17.4,0.5,34.9-0.8,52.1-3.6
					L545.1,700.5z M498.3,657.1c-59.1,0-115-22.7-157.7-64.1c-44.4-43.1-69.3-101.1-70.1-163.4c-0.8-61.8,22.2-120.3,64.8-164.8
					c42.6-44.5,99.8-69.5,160.9-70.6c60.6-1.1,118,21.7,161.7,64.1c44.4,43.1,69.3,101.1,70.1,163.4c0.8,61.8-22.2,120.3-64.8,164.8
					c-42.6,44.5-99.8,69.5-160.9,70.6l0-1.8l0,1.8C501,657.1,499.6,657.1,498.3,657.1z M500.1,197.7c-1.3,0-2.6,0-3.9,0
					C372,199.9,272.3,303.9,274,429.6c0.8,61.4,25.3,118.5,69.1,161c43,41.7,99.6,64.1,159.2,63.1
					c124.2-2.1,223.9-106.1,222.2-231.8c-0.8-61.4-25.3-118.5-69.1-161C613.4,220,558.4,197.7,500.1,197.7z"/>
			</g>
			<g id="Mast">
				<g id="XMLID_65_">
					<polygon class="st3" points="547,361.5 505.7,329.9 501.5,265 540,261.7 					"/>
					<path class="st1" d="M548.7,364.7l-44.4-34.1l-4.4-67l41.5-3.6L548.7,364.7z M507.2,329.1l38.1,29.2l-6.7-95l-35.5,3.1
						L507.2,329.1z"/>
				</g>
				<g id="XMLID_67_">
					<g>
						<path class="st4" d="M490.6,245.7c-2.4,0-3.6-0.3-4.7-1.2c-4.4-3.4-3.4-11.3-3.3-12.2c1.1-7.3,7-13.4,9.5-13.4
							c0.2,0,0.4,0,0.6,0.1c0.8,0.4,0.7,1.3,0.5,2.9c-0.2,1.6-0.5,4-0.2,7.5c0,0.1,0.4,6.3,3.4,9.5c0.2-0.6,0.4-1.7,0.6-2.8
							c0.5-3,1.3-7.5,3-11.8c2.3-5.7,6.4-11.4,8.3-11.4c0.1,0,0.3,0,0.4,0.1c0.8,0.3,0.7,1.3,0.5,3.1c-0.2,1.5-0.4,3.6-0.2,6.3
							c0.3,5.7,1.8,10.3,2.5,10.5c0.2-0.2,0.6-1.8,1-3.3c0.7-3.1,1.9-7.8,4.5-13.4c3.1-6.5,4.5-7.3,5.3-7.3c0.1,0,0.2,0,0.3,0
							c1.1,0.3,1.2,2.1,1.3,5.9l0,0.5c0.2,5.2,0.4,11,0.8,13.3c0.1-0.3,0.1-0.6,0.2-1c0.7-3.2,2-9.2,5.8-15.2
							c1.1-1.7,3.8-5.6,5.4-5.6c0.2,0,0.3,0,0.4,0.1c1,0.4,0.8,1.8,0.4,4.4c-0.4,2.9-1,7.3-0.2,12.6c0.7,4.7,2,7.9,2.6,7.9
							c0.2-0.1,0.4-1,0.6-1.8c0.4-1.6,1.1-4.1,2.6-7.3c0.5-1,0.9-1.8,1.3-2.4c0.8-1.4,1.5-2.5,2-4.6c0.1-0.5,0.3-1.1,0.4-1.5
							c0.3-1.2,0.4-2,1.1-2.1c0,0,0,0,0,0c0.7,0,1.3,0.5,2.4,6c0.9,4.7,1.6,8.4,0.6,13.3c-0.7,3-1.1,5-2.6,6.8
							c-2.8,3.5-7,3.7-17.1,4.3c-4.1,0.2-9.2,0.5-15.7,1.1c-1,0.1-2,0.2-3,0.3c-2.1,0.2-4.3,0.4-6.2,0.6L501,245
							C495.8,245.4,492.7,245.7,490.6,245.7z"/>
					</g>
					<g>
						<path class="st1" d="M536.3,207.5c0.1,0,0.2,0,0.2,0c1.4,0.6-1.5,7.2-0.1,16.6c0.6,3.8,1.9,8.4,3.1,8.4c0,0,0,0,0,0
							c1.1,0,0.7-3.6,3.7-9.4c1.5-3,2.6-4,3.4-7.1c0.5-1.8,0.6-3.1,1-3.2c0,0,0,0,0,0c0.8,0,1.6,4.3,1.8,5.6
							c0.9,4.6,1.6,8.3,0.6,13.1c-0.7,3-1.1,4.9-2.5,6.6c-3.8,4.6-10.3,3.2-32.4,5.2c-3,0.3-6.3,0.6-9.2,0.8c-8.1,0.6-12.5,1-15.2,1
							c-2.4,0-3.4-0.3-4.4-1.1c-4.2-3.2-3.2-10.9-3.1-11.7c1.1-7.2,6.9-13,9-13c0.1,0,0.3,0,0.4,0.1c1,0.5-0.4,3.1,0,10
							c0,0,0.4,6.9,3.9,10.2c0,0,0.1,0,0.1,0.1c0,0,0,0,0,0c0.8,0,1.1-8,4-15.2c2.4-6,6.3-11,7.8-11c0.1,0,0.1,0,0.2,0
							c0.9,0.4-0.3,3.4,0,9c0.3,5.2,1.7,11,3,11c0,0,0,0,0,0c1.4,0,1.3-7.1,6-17c0.7-1.6,3.4-7,4.8-7c0.1,0,0.1,0,0.2,0
							c0.8,0.2,0.9,2.3,1,6c0.3,8.4,0.6,14.6,1.3,14.7c0,0,0,0,0,0c0.7,0,1-8.6,6.5-17.3C532.8,210.5,535.1,207.5,536.3,207.5
							 M536.3,206.5c-1.8,0-4.2,3.2-5.9,5.9c-3.2,5-4.6,9.9-5.4,13.3c-0.2-2.8-0.3-6.6-0.5-10.2l0-0.5c-0.2-4.1-0.2-6-1.7-6.4
							c-0.1,0-0.3-0.1-0.4-0.1c-1.1,0-2.6,0.9-5.8,7.6c-2.7,5.7-3.8,10.4-4.6,13.5c-0.2,0.9-0.4,1.8-0.6,2.4
							c-0.7-1.5-1.7-5.4-1.9-9.6c-0.1-2.7,0.1-4.7,0.2-6.2c0.2-1.9,0.3-3.2-0.8-3.7c-0.2-0.1-0.4-0.1-0.6-0.1
							c-2.3,0-6.5,6.2-8.7,11.7c-1.7,4.3-2.5,8.9-3.1,11.9c-0.1,0.6-0.2,1.3-0.3,1.8c-2.3-3.2-2.7-8.4-2.7-8.4
							c-0.2-3.5,0-5.9,0.2-7.4c0.2-1.6,0.3-2.8-0.8-3.4c-0.2-0.1-0.5-0.2-0.8-0.2c-2.7,0-8.9,6.3-10,13.8c-0.1,0.9-1.2,9.1,3.5,12.6
							c1.2,0.9,2.5,1.3,5,1.3c2.1,0,5.3-0.2,10.4-0.6c1.5-0.1,3.1-0.2,4.9-0.4c2-0.1,4.1-0.4,6.3-0.6c1-0.1,2-0.2,3-0.3
							c6.4-0.6,11.5-0.9,15.6-1.1c10.3-0.6,14.5-0.8,17.5-4.5c1.6-1.9,2-4,2.7-7.1c1.1-4.9,0.3-8.9-0.6-13.5c-1-5.5-1.7-6.4-2.8-6.4
							c0,0-0.1,0-0.1,0c-1,0.1-1.3,1.1-1.5,2.4c-0.1,0.4-0.2,0.9-0.3,1.5c-0.5,2-1.2,3.1-2,4.5c-0.4,0.7-0.9,1.5-1.4,2.5
							c-1.6,3.2-2.3,5.7-2.7,7.4c-0.1,0.3-0.2,0.7-0.3,1c-0.6-1.1-1.4-3.7-1.9-7.1c-0.8-5.2-0.2-9.6,0.2-12.5
							c0.4-2.7,0.6-4.3-0.7-4.9C536.7,206.5,536.5,206.5,536.3,206.5L536.3,206.5z"/>
					</g>
				</g>
				<g id="XMLID_66_" class="st5">
					<path class="st3" d="M483,242.7c-0.1,1-0.2,2.1-0.1,3.1v0c0.8,8.3,8.9,14.4,18,13.6l35-3.1c9.1-0.8,15.8-8.2,15-16.5v0
						c-0.1-1.1-0.3-2.1-0.7-3.1C527.8,238.7,505.4,240.7,483,242.7z"/>
					<path class="st1" d="M499.3,261c-9.2,0-17-6.4-17.8-15c-0.1-1.1-0.1-2.3,0.1-3.5l0.2-1.2l69.6-6.3l0.4,1.1
						c0.4,1.2,0.7,2.3,0.8,3.5c0.4,4.1-0.9,8.3-3.7,11.6c-3.1,3.7-7.7,6.1-12.7,6.6l-35,3.1C500.4,261,499.8,261,499.3,261z
						 M484.3,244.1c0,0.5,0,1.1,0,1.6c0.7,7.5,8.1,13,16.4,12.2l35-3.1c4.2-0.4,8.1-2.4,10.7-5.5c2.3-2.7,3.3-6.1,3-9.4
						c-0.1-0.6-0.2-1.1-0.3-1.7L484.3,244.1z"/>
				</g>
				<g id="XMLID_10_">
					<path class="st3" d="M499.4,268.8l41.8-3.5c2.4-0.2,4.2-2.3,4-4.7l0,0c-0.2-2.4-2.3-4.2-4.7-4l-41.8,3.5
						c-2.4,0.2-4.2,2.3-4,4.7l0,0C494.8,267.2,497,269,499.4,268.8z"/>
					<path class="st1" d="M499,270.3c-3,0-5.6-2.3-5.9-5.4c-0.1-1.6,0.4-3.1,1.4-4.3c1-1.2,2.4-1.9,4-2.1l41.8-3.5
						c1.6-0.1,3.1,0.4,4.3,1.4c1.2,1,1.9,2.4,2.1,4c0.1,1.6-0.4,3.1-1.4,4.3c-1,1.2-2.4,1.9-4,2.1l-41.8,3.5
						C499.3,270.3,499.2,270.3,499,270.3z M540.8,258.1c-0.1,0-0.2,0-0.2,0l-41.8,3.5c-0.8,0.1-1.5,0.4-2,1s-0.7,1.3-0.7,2.1
						c0.1,1.6,1.5,2.8,3.1,2.6l41.8-3.5c0.8-0.1,1.5-0.4,2-1c0.5-0.6,0.7-1.3,0.7-2.1s-0.4-1.5-1-2
						C542.2,258.3,541.5,258.1,540.8,258.1z"/>
				</g>
			</g>
			<g id="Compass">
				<g id="XMLID_6_">
					<g id="XMLID_7_">
						<path class="st3" d="M448,316c10.4,122.3,20.9,244.6,31.3,367l-80.8-391.6l46,20.8l-2.8-46.9L738.5,510
							C641.7,445.3,544.8,380.7,448,316z"/>
						<path class="st1" d="M477.8,683.3l-81.4-394.5c14.9,6.1,29.7,12.2,44.6,18.2c-0.3-15-0.6-30.1-0.9-45.1l299.4,247l-1.8,2.4
							C641.8,447.2,545.9,383.1,450,319c10.3,121.3,20.5,242.6,30.8,363.8L477.8,683.3z M400.6,293.9L475.7,658
							c-9.6-114.7-19.1-229.3-28.7-344c89.3,59.5,178.6,119,267.9,178.5L443.4,268.6c0.9,14.8,1.7,29.6,2.6,44.4
							C430.9,306.6,415.7,300.3,400.6,293.9z"/>
					</g>
				</g>
				<g id="XMLID_21_">
					<g id="XMLID_17_">
						<path class="st3" d="M419.4,278.4l-3.4,2.4c-3,2.1-7.2,1.3-9.3-1.7l-24.5-35.6c-2.1-3-1.3-7.2,1.7-9.3l3.4-2.4
							c3-2.1,7.2-1.3,9.3,1.7l24.5,35.6C423.2,272.1,422.4,276.3,419.4,278.4z"/>
						<path class="st1" d="M412.2,283.4c-2.6,0-5.1-1.2-6.7-3.5l-24.5-35.6c-2.6-3.7-1.6-8.8,2.1-11.3l3.4-2.4
							c1.8-1.2,4-1.7,6.1-1.3c2.1,0.4,4,1.6,5.2,3.4l24.5,35.6c1.2,1.8,1.7,4,1.3,6.1c-0.4,2.1-1.6,4-3.4,5.2l-3.4,2.4
							C415.4,283,413.8,283.4,412.2,283.4z M391.1,232.1c-1,0-2,0.3-2.9,0.9l-3.4,2.4c-2.3,1.6-2.9,4.8-1.3,7.2l24.5,35.6
							c1.6,2.3,4.8,2.9,7.2,1.3l3.4-2.4c1.1-0.8,1.9-2,2.1-3.3s0-2.7-0.8-3.9l-24.5-35.6c-0.8-1.1-2-1.9-3.3-2.1
							C391.7,232.2,391.4,232.1,391.1,232.1z"/>
					</g>
					<g id="XMLID_15_">
						<g id="XMLID_32_" class="st5">
							<path class="st1" d="M427.1,259.1c-17,0-30.9,13.8-30.9,30.9c0,17.1,13.8,30.9,30.9,30.9c17,0,30.9-13.8,30.9-30.9
								C458,273,444.1,259.1,427.1,259.1z M427.1,299.8c-5.4,0-9.8-4.4-9.8-9.8c0-5.4,4.4-9.8,9.8-9.8c5.4,0,9.8,4.4,9.8,9.8
								C436.9,295.4,432.5,299.8,427.1,299.8z"/>
						</g>
						<g id="inner_circle" class="st5">
							<path class="st6" d="M436.9,290c0,5.4-4.4,9.8-9.8,9.8c-5.4,0-9.8-4.4-9.8-9.8c0-5.4,4.4-9.8,9.8-9.8
								C432.5,280.2,436.9,284.6,436.9,290z"/>
						</g>
					</g>
				</g>
			</g>
			<g id="Set_Square__x26__Shock">
				<g id="XMLID_9_">
					<g id="XMLID_24_">
						<path class="st7" d="M599.9,474.1c-14.5,6.1-28.9,12.2-43.4,18.4c0-26.7,0-53.3,0-80c-19.6-1.9-39.1-3.9-58.7-5.8
							c32.9-60.4,65.8-120.8,98.7-181.2C597.6,308.4,598.8,391.3,599.9,474.1z"/>
						<path class="st1" d="M555,494.8v-80.9l-59.6-5.9l102.5-188.2l3.5,255.4L555,494.8z M500.2,405.5l57.8,5.7v79.1l40.4-17.1
							l-3.3-241.9L500.2,405.5z"/>
					</g>
					<g id="XMLID_30_">
						<path class="st7" d="M601.5,603.5c-73,0.3-146,0.7-219,1c38-65.3,76-130.7,114-196c11.3-1.6,22.6-3.2,33.8-4.8l-68,151.7
							l93.8,0c0.1-19,0.3-37.9,0.4-56.9c14.7-6.4,29.5-12.9,44.2-19.3C601,520.6,601.2,562.1,601.5,603.5z"/>
						<path class="st1" d="M379.9,606l115.7-198.9l37.2-5.3l-68.2,152.1l90,0l0.4-56.4l47.2-20.6L603,605L379.9,606z M497.4,409.9
							L385.1,603l214.9-1l-0.8-120.5l-41.2,18l-0.4,57.4l-97.6,0l67.8-151.3L497.4,409.9z"/>
					</g>
				</g>
				<g id="XMLID_26_">
					<path class="st8" d="M725.5,435.5C638.3,474.2,551.1,513,464,551.7l48.9-116.6L272,447.8l310.6-73.8l-47.8,111.4
						C598.4,468.8,661.9,452.1,725.5,435.5z"/>
					<path class="st1" d="M461.6,554.1l49.3-117.7l-238.8,12.6l-0.4-2.5l313-74.4L537,483.6l188.2-49.3l0.8,2.4L461.6,554.1z
						 M514.8,433.7l-48.4,115.5l244.6-108.7l-178.3,46.7l47.8-111.5l-294.7,70L514.8,433.7z"/>
				</g>
			</g>
		</g>
		<g id="Type_Face">
			<g>
				<g>
					<path class="st9" d="M226.9,946.7V894h22.4c5.6,0,9.7,0.5,12.3,1.4c2.5,0.9,4.6,2.6,6.1,5c1.5,2.4,2.3,5.2,2.3,8.3
						c0,4-1.2,7.2-3.5,9.8c-2.3,2.6-5.8,4.2-10.4,4.9c2.3,1.3,4.2,2.8,5.7,4.4c1.5,1.6,3.5,4.5,6.1,8.5l6.4,10.3h-12.7l-7.7-11.5
						c-2.7-4.1-4.6-6.7-5.6-7.7c-1-1.1-2.1-1.8-3.2-2.2s-2.9-0.6-5.4-0.6h-2.2v22H226.9z M237.5,916.3h7.9c5.1,0,8.3-0.2,9.6-0.6
						c1.3-0.4,2.3-1.2,3-2.2s1.1-2.4,1.1-4c0-1.8-0.5-3.2-1.4-4.3c-0.9-1.1-2.3-1.8-4-2.1c-0.9-0.1-3.4-0.2-7.8-0.2h-8.3V916.3z"/>
				</g>
				<g>
					<path class="st9" d="M299.7,920.5c0-5.3,0.8-9.7,2.4-13.2c1.2-2.6,2.8-5,4.8-7.1c2-2.1,4.2-3.6,6.7-4.6c3.2-1.4,6.9-2,11.1-2
						c7.6,0,13.7,2.4,18.2,7.1c4.6,4.7,6.8,11.3,6.8,19.7c0,8.3-2.3,14.8-6.8,19.5c-4.5,4.7-10.6,7-18.1,7c-7.7,0-13.8-2.3-18.3-7
						C302,935.2,299.7,928.8,299.7,920.5z M310.4,920.2c0,5.8,1.3,10.3,4,13.3c2.7,3,6.1,4.5,10.3,4.5s7.6-1.5,10.2-4.5
						c2.7-3,4-7.5,4-13.4c0-5.9-1.3-10.3-3.9-13.2c-2.6-2.9-6-4.4-10.3-4.4s-7.7,1.5-10.4,4.4C311.7,909.8,310.4,914.3,310.4,920.2z
						"/>
				</g>
				<g>
					<path class="st9" d="M378.3,894.5h10.4v27.9c0,4.4,0.1,7.3,0.4,8.6c0.4,2.1,1.5,3.8,3.2,5.1c1.7,1.3,4,1.9,6.9,1.9
						c3,0,5.2-0.6,6.7-1.8c1.5-1.2,2.4-2.7,2.7-4.4c0.3-1.8,0.5-4.7,0.5-8.8v-28.5h10.4v27.1c0,6.2-0.3,10.6-0.8,13.1
						s-1.6,4.7-3.1,6.5s-3.5,3.2-6.1,4.2s-5.8,1.6-9.9,1.6c-4.9,0-8.7-0.6-11.2-1.7c-2.5-1.1-4.6-2.6-6-4.4s-2.4-3.7-2.9-5.7
						c-0.7-3-1-7.3-1-13.1V894.5z"/>
				</g>
				<path class="st9" d="M494.7,936.7c-2.6-4.1-4.6-7-6.1-8.6c-1.5-1.6-3.4-3.1-5.7-4.4c4.6-0.7,8.1-2.3,10.5-4.9
					c2.3-2.6,3.5-5.9,3.5-9.8c0-3.1-0.8-5.9-2.3-8.3c-1.5-2.4-3.6-4.1-6.2-5.1c-2.6-1-6.7-1.4-12.3-1.4h-22.5V947h10.7v-22.1h2.2
					c2.5,0,4.2,0.2,5.4,0.6c1.1,0.4,2.2,1.1,3.2,2.2s2.9,3.7,5.6,7.8l7.7,11.5h12.8L494.7,936.7z M472.2,916.5h-7.9V903h8.3
					c4.3,0,6.9,0.1,7.8,0.2c1.7,0.3,3.1,1,4,2.1c1,1.1,1.4,2.5,1.4,4.3c0,1.6-0.4,2.9-1.1,4c-0.7,1.1-1.7,1.8-3,2.2
					C480.5,916.2,477.3,916.5,472.2,916.5z"/>
				<g>
					<path class="st9" d="M526.3,946.4v-52.1h10.6v23.1l21.4-23.1h14.2l-19.7,20.3l20.8,31.8h-13.7L545.5,922l-8.6,8.7v15.7H526.3z"
						/>
				</g>
				<g>
					<path class="st9" d="M601,946v-51.5h38.2v8.7h-27.8v11.4h25.9v8.7h-25.9v14h28.8v8.7H601z"/>
				</g>
				<g>
					<path class="st9" d="M670.3,946v-51.4h10.5v42.7h26v8.7H670.3z"/>
				</g>
				<g>
					<path class="st9" d="M782.7,946h-11.3l-4.5-11.7h-20.6L742,946h-11l20.1-51.5h11L782.7,946z M763.5,925.6l-7.1-19.1l-7,19.1
						H763.5z"/>
				</g>
			</g>
			<g>
				<g>
					<path class="st9" d="M829.8,695.1l-27.6-22.7l-8.1,9.8l-5.6-4.6l21.7-26.4l5.6,4.6l-8.1,9.8l27.6,22.7L829.8,695.1z"/>
				</g>
				<g>
					<path class="st9" d="M849.6,673.5l-34.1-26.1l19.4-25.3l5.8,4.4l-14.1,18.4l7.6,5.8l13.1-17.1l5.7,4.4l-13.1,17.1l9.3,7.1
						l14.6-19l5.7,4.4L849.6,673.5z"/>
				</g>
				<g>
					<path class="st9" d="M873.7,608.7l6.9-5.5c3.2,3.7,4.9,7.4,5.2,11.1c0.2,3.8-0.9,7.6-3.5,11.4c-3.1,4.8-7.4,7.6-12.6,8.5
						c-5.3,0.9-10.7-0.5-16.4-4.2c-6-3.9-9.6-8.6-10.8-13.8c-1.3-5.3-0.2-10.4,3.1-15.4c2.9-4.4,6.6-7.1,11-8.1
						c2.6-0.6,5.6-0.4,9,0.7l-3,8.3c-2.1-0.8-4.2-0.9-6.2-0.3c-2,0.6-3.6,1.9-4.9,3.8c-1.8,2.7-2.2,5.4-1.4,8.4
						c0.8,2.9,3.3,5.8,7.6,8.6c4.5,3,8.3,4.3,11.3,4c3-0.4,5.4-1.8,7.1-4.4c1.3-1.9,1.8-4,1.5-6.2
						C877.2,613.3,875.9,611,873.7,608.7z"/>
				</g>
				<g>
					<path class="st9" d="M895.5,599.8l-39.2-17.6l3.5-7.9l15.4,6.9l6.9-15.5l-15.4-6.9l3.5-7.9l39.2,17.6l-3.5,7.9l-17.1-7.7
						l-6.9,15.5l17.1,7.7L895.5,599.8z"/>
				</g>
				<g>
					<path class="st9" d="M915.5,556.6l-40.3-14.9l2.9-7.9l33-6.6l-26.9-9.9l2.8-7.6l40.3,14.9l-3,8.2l-32.3,6.6l26.3,9.7
						L915.5,556.6z"/>
				</g>
				<g>
					<path class="st9" d="M910.1,509c-4.3-0.9-7.7-2.3-10.4-4.2c-1.9-1.4-3.6-3.1-5-5.1c-1.4-2-2.2-4.1-2.7-6.2
						c-0.6-2.9-0.5-6,0.2-9.4c1.3-6.2,4.2-10.8,8.9-13.7c4.6-2.9,10.3-3.7,17.2-2.3c6.8,1.4,11.7,4.4,14.8,8.8c3.1,4.5,4,9.8,2.7,16
						c-1.3,6.3-4.2,10.8-8.8,13.7C922.4,509.6,916.8,510.4,910.1,509z M911.6,500.2c4.8,1,8.6,0.6,11.5-1.1c2.9-1.7,4.7-4.2,5.4-7.6
						c0.7-3.4,0.1-6.4-1.9-9.1c-2-2.7-5.4-4.5-10.3-5.5c-4.8-1-8.6-0.7-11.4,0.9s-4.6,4.2-5.3,7.7c-0.7,3.5-0.1,6.6,1.8,9.2
						C903.4,497.4,906.8,499.2,911.6,500.2z"/>
				</g>
				<g>
					<path class="st9" d="M940.8,460.5l-41.4-5.5l1.1-8.4l34.4,4.5l2.8-21l7,0.9L940.8,460.5z"/>
				</g>
				<g>
					<path class="st9" d="M924.8,420.9c-4.4,0-8.1-0.6-11-1.9c-2.2-1-4.2-2.3-5.9-4c-1.8-1.7-3.1-3.5-3.9-5.5
						c-1.2-2.7-1.7-5.7-1.8-9.2c0-6.3,1.9-11.4,5.8-15.2c3.9-3.8,9.3-5.8,16.3-5.8c6.9-0.1,12.4,1.8,16.3,5.5
						c3.9,3.7,5.9,8.8,6,15.1c0,6.4-1.9,11.5-5.7,15.3C937,418.9,931.6,420.8,924.8,420.9z M924.4,411.9c4.9,0,8.5-1.2,11-3.4
						c2.5-2.3,3.7-5.1,3.7-8.6c0-3.5-1.3-6.3-3.8-8.5c-2.5-2.2-6.3-3.3-11.2-3.2c-4.9,0-8.6,1.1-11,3.3c-2.4,2.2-3.6,5.1-3.6,8.6
						c0,3.6,1.3,6.4,3.7,8.6S919.5,412,924.4,411.9z"/>
				</g>
				<g>
					<path class="st9" d="M927.6,351.5l-7.2,0.5l-1.2-18.7l17.1-1.1c1.9,1.7,3.6,4.2,5.1,7.6s2.4,6.8,2.7,10.3
						c0.3,4.5-0.4,8.5-2.1,11.9c-1.7,3.5-4.2,6.1-7.6,8c-3.4,1.9-7.1,3-11.3,3.2c-4.5,0.3-8.5-0.4-12.1-2.1
						c-3.6-1.7-6.4-4.2-8.5-7.7c-1.6-2.7-2.5-6-2.8-10.1c-0.3-5.3,0.5-9.5,2.6-12.7c2-3.1,5-5.3,8.9-6.4l2.1,8.5
						c-2.1,0.7-3.7,2-4.8,3.7c-1.1,1.7-1.6,3.9-1.4,6.4c0.2,3.8,1.6,6.7,4.2,8.8c2.5,2.1,6.2,3,10.9,2.7c5.1-0.3,8.8-1.7,11.2-4.1
						c2.4-2.4,3.5-5.5,3.3-9.1c-0.1-1.8-0.6-3.6-1.4-5.4c-0.8-1.8-1.8-3.3-2.9-4.5l-5.4,0.3L927.6,351.5z"/>
				</g>
				<g>
					<path class="st9" d="M938.5,312.8l-17.8,3l-21.9,19.6l-1.7-10l15.1-12.8l-18.4-6.9l-1.7-9.9l27.2,11.4l17.8-3L938.5,312.8z"/>
				</g>
			</g>
			<g>
				<g>
					<path class="st9" d="M232,780.9l25.4-34.6l7,5.1L238.9,786L232,780.9z"/>
				</g>
				<g>
					<path class="st9" d="M258.4,799.2l22.2-36.8l7.2,4.4l0.2,33.6l14.8-24.5l6.9,4.2l-22.2,36.8l-7.4-4.5l-0.3-32.9l-14.5,24
						L258.4,799.2z"/>
				</g>
				<g>
					<path class="st9" d="M312.9,812.7l8.1,2.6c-0.7,2.8-0.5,5.1,0.4,7c0.9,1.8,2.6,3.3,5,4.3c2.6,1.1,4.7,1.4,6.5,0.9
						c1.8-0.5,3-1.5,3.6-3c0.4-0.9,0.5-1.8,0.2-2.7c-0.3-0.9-1-1.9-2.1-2.9c-0.8-0.7-2.7-2.2-5.6-4.5c-3.8-2.9-6.2-5.5-7.3-7.8
						c-1.5-3.2-1.6-6.4-0.2-9.5c0.9-2,2.2-3.6,4.1-4.9c1.9-1.3,4.1-1.9,6.6-1.9c2.5,0,5.3,0.7,8.4,2c4.9,2.1,8.2,4.8,9.8,8.1
						c1.6,3.2,1.6,6.7,0.2,10.4l-8.1-3.1c0.5-2.2,0.4-3.9-0.3-5.3c-0.7-1.4-2.2-2.5-4.5-3.5c-2.3-1-4.3-1.3-6-0.9
						c-1.1,0.2-1.9,0.9-2.3,1.9c-0.4,0.9-0.4,1.9,0.2,2.9c0.6,1.3,2.7,3.2,6.2,5.8s5.9,4.8,7.4,6.5s2.3,3.7,2.6,5.9
						c0.3,2.1-0.1,4.5-1.1,7c-1,2.3-2.5,4.1-4.6,5.5c-2.1,1.4-4.5,2.1-7.2,2.1s-5.8-0.8-9.2-2.3c-5-2.2-8.3-5-10-8.4
						C311.6,821.4,311.5,817.3,312.9,812.7z"/>
				</g>
				<g>
					<path class="st9" d="M375.6,849.9l9.5-34.4l-13-3.6l1.9-7l34.8,9.6l-1.9,7l-13-3.6l-9.5,34.4L375.6,849.9z"/>
				</g>
				<g>
					<path class="st9" d="M421.9,861l3.6-42.8l8.1,0.7l-3.6,42.8L421.9,861z"/>
				</g>
				<g>
					<path class="st9" d="M465.1,865.8l1.2-35.7l-12.7-0.4l0.3-7.3l34.1,1.2l-0.3,7.3l-12.7-0.4l-1.2,35.7L465.1,865.8z"/>
				</g>
				<g>
					<path class="st9" d="M505.3,824.8l8.9-0.3l0.7,23.9c0.1,3.8,0.3,6.2,0.5,7.4c0.4,1.8,1.4,3.2,2.9,4.3c1.5,1.1,3.4,1.5,5.9,1.5
						c2.5-0.1,4.4-0.6,5.7-1.7s2-2.4,2.2-3.9c0.2-1.5,0.3-4,0.2-7.5l-0.7-24.4l8.9-0.3l0.7,23.2c0.2,5.3,0,9-0.4,11.2
						c-0.4,2.2-1.3,4.1-2.5,5.6c-1.2,1.5-2.9,2.8-5.1,3.7c-2.1,1-5,1.5-8.4,1.6c-4.2,0.1-7.4-0.3-9.6-1.2c-2.2-0.9-4-2.1-5.3-3.6
						c-1.3-1.5-2.2-3.1-2.6-4.8c-0.7-2.5-1.1-6.2-1.2-11.2L505.3,824.8z"/>
				</g>
				<g>
					<path class="st9" d="M578.9,861.7l-4.5-35.6l-11.8,1.5l-0.9-7.2l31.5-4l0.9,7.2l-11.7,1.5l4.5,35.6L578.9,861.7z"/>
				</g>
				<g>
					<path class="st9" d="M622.1,853.3l-13-40.9l30.4-9.6l2.2,6.9l-22.1,7l2.9,9.1l20.6-6.5l2.2,6.9l-20.6,6.5l3.5,11.1l22.9-7.2
						l2.2,6.9L622.1,853.3z"/>
				</g>
				<g>
					<path class="st9" d="M693.6,803.8c-2-3.9-3-7.5-3.2-10.7c-0.1-2.4,0.2-4.7,0.9-7.1s1.8-4.3,3.2-6c1.9-2.2,4.4-4.1,7.5-5.7
						c5.7-2.8,11.1-3.4,16.2-1.6s9.3,5.8,12.5,12.1c3.1,6.2,3.9,11.9,2.3,17.1c-1.6,5.2-5.2,9.2-10.9,12c-5.7,2.9-11.1,3.4-16.2,1.6
						C700.8,813.9,696.7,809.9,693.6,803.8z M701.5,799.6c2.2,4.3,4.8,7.1,8,8.4c3.1,1.2,6.2,1.1,9.3-0.5c3.1-1.6,5.1-3.9,5.9-7.2
						s0.2-7.1-2.1-11.5c-2.2-4.4-4.8-7.2-7.8-8.4c-3-1.2-6.1-1-9.3,0.6s-5.2,4-6.1,7.2C698.6,791.3,699.3,795.1,701.5,799.6z"/>
				</g>
				<g>
					<path class="st9" d="M758.5,792.8l-26.7-33.6l22.7-18l4.5,5.7l-16,12.7l6.3,8l13.8-11l4.5,5.7l-13.8,11l11.4,14.3L758.5,792.8z
						"/>
				</g>
			</g>
			<g>
				<g>
					<path class="st9" d="M73,316.8l42.6,5.2l-1,8.4l-30.6,14l28.5,3.5l-1,8l-42.6-5.2l1.1-8.6l29.9-13.8L72,324.8L73,316.8z"/>
				</g>
				<g>
					<path class="st9" d="M64.8,411.8l0.3-9.4l9.9-3.4l0.6-17.2l-9.6-3.9l0.3-9.2l42.4,18.2l-0.3,9.2L64.8,411.8z M82.3,396.4
						l16.1-5.4l-15.7-6.3L82.3,396.4z"/>
				</g>
				<g>
					<path class="st9" d="M63.2,440.3l35.5-3.2l-1.1-12.7l7.2-0.7l3.1,34l-7.2,0.7l-1.1-12.7L64,449L63.2,440.3z"/>
				</g>
				<g>
					<path class="st9" d="M68.9,485.8l41.9-9.5l1.9,8.5l-41.9,9.5L68.9,485.8z"/>
				</g>
				<g>
					<path class="st9" d="M94.1,506.8c4.2-1.4,7.9-1.9,11.1-1.5c2.4,0.3,4.7,0.9,6.8,2s4,2.4,5.4,4.1c1.9,2.2,3.4,5,4.5,8.3
						c2,6,1.7,11.4-0.9,16.3c-2.6,4.8-7.2,8.3-13.8,10.5c-6.6,2.1-12.3,2-17.2-0.3c-4.9-2.4-8.3-6.6-10.3-12.6
						c-2-6.1-1.7-11.5,0.8-16.3C83.1,512.4,87.6,508.9,94.1,506.8z M97.2,515.2c-4.6,1.5-7.8,3.7-9.5,6.6c-1.7,2.9-2,6-0.9,9.3
						c1.1,3.3,3.1,5.6,6.2,6.9c3.1,1.3,6.9,1.2,11.7-0.3c4.7-1.5,7.8-3.7,9.5-6.5c1.6-2.8,1.9-5.9,0.8-9.3s-3.2-5.8-6.2-7.1
						C105.7,513.6,101.9,513.7,97.2,515.2z"/>
				</g>
				<g>
					<path class="st9" d="M98.8,572.6l39.5-16.9l3.3,7.8l-19.5,27.4l26.4-11.3l3.2,7.4l-39.5,16.9l-3.4-8l18.9-26.9L102,580
						L98.8,572.6z"/>
				</g>
				<g>
					<path class="st9" d="M148.5,659l-4.8-7.7l6.1-8.1l-8.8-14.1l-9.8,2.1l-4.7-7.5l43.8-8.3l4.7,7.5L148.5,659z M154.3,637.2l10-13
						l-16,3.4L154.3,637.2z"/>
				</g>
				<g>
					<path class="st9" d="M162.8,673l29.9-23.4l4.8,6.1l-24.8,19.4l11.8,15.1l-5.1,4L162.8,673z"/>
				</g>
			</g>
			
		</g>
	</g>
</switch>
</svg>